<?xml version="1.0" encoding="utf-8"?>
<!-- Generator: Adobe Illustrator 21.1.0, SVG Export Plug-In . SVG Version: 6.00 Build 0)  -->
<svg version="1.1" xmlns="http://www.w3.org/2000/svg" xmlns:xlink="http://www.w3.org/1999/xlink" x="0px" y="0px"
	 viewBox="0 0 321.1 188" style="enable-background:new 0 0 321.1 188;" xml:space="preserve">
<style type="text/css">
	.st0{display:none;fill:url(#SVGID_1_);}
	.st1{fill:#F2F2F2;}
	.st2{fill:none;stroke:#DDDDDD;stroke-width:2;stroke-miterlimit:10;}
	.st3{fill:none;stroke:#F2F2F2;stroke-width:3;stroke-miterlimit:10;}
	.st4{opacity:0.8;fill:#FDFD00;}
	.st5{opacity:0.8;fill:#FF231B;}
	.st6{opacity:0.8;fill:#00A23B;}
	.st7{display:none;}
</style>
<g id="Camada_3">
	
		<linearGradient id="SVGID_1_" gradientUnits="userSpaceOnUse" x1="-353.8552" y1="-82.1496" x2="587.8552" y2="170.1809" gradientTransform="matrix(1 0 0 -1 0 232.0312)">
		<stop  offset="0" style="stop-color:#008CC9"/>
		<stop  offset="1" style="stop-color:#009EA5"/>
	</linearGradient>
	<rect x="-293.5" y="-163.3" class="st0" width="821" height="702.7"/>
</g>
<g id="Camada_1">
	<g id="Camada_2">
		<g>
			<path class="st1" d="M264.6,181.2v-30.1h2.6v30.1H264.6z"/>
			<path class="st1" d="M50.3,148.3v-34.2h14.3v4.8h-7.3v9.3h5.2v4.9h-5.2v10.6h7.3v4.8H50.3z"/>
			<path class="st1" d="M67,148.3v-34.2h5l7.5,17.9v-17.9h5.7v34.2h-4.8l-7.5-19v19L67,148.3z"/>
			<path class="st1" d="M88.2,138.5l7-1.4c0,0.7,0,1.3,0,1.8c0,0.6,0.1,1.2,0.2,1.7c0.1,0.5,0.2,1,0.4,1.5c0.2,0.4,0.4,0.7,0.8,1
				c0.3,0.3,0.8,0.4,1.2,0.4c1.4,0,2-0.9,2.1-2.6c0-2.4-1.3-4.8-4-7.1l-2.2-1.8c-0.7-0.6-1.2-1-1.6-1.4c-0.5-0.5-1-1-1.4-1.6
				c-0.5-0.6-0.9-1.2-1.3-1.9c-0.3-0.7-0.6-1.4-0.8-2.2c-0.2-0.9-0.3-1.8-0.3-2.7c-0.1-2.5,0.8-4.9,2.6-6.6c1.9-1.7,4.4-2.5,7-2.4
				c2.3,0,4.6,0.9,6.2,2.6c1.7,1.6,2.6,3.9,2.5,6.2v0.3v0.6l-7.1,1c0-0.1,0-0.4,0-0.7c0-0.3,0-0.5,0-0.7c0-0.4,0-0.9-0.1-1.3
				c-0.1-0.4-0.1-0.8-0.3-1.2c-0.1-0.4-0.4-0.7-0.7-1c-0.3-0.2-0.7-0.4-1.1-0.4c-0.7,0-1.3,0.3-1.7,0.9c-0.4,0.6-0.6,1.4-0.6,2.1
				c0,0.7,0.1,1.4,0.3,2c0.2,0.6,0.6,1.2,1,1.7c0.4,0.5,0.8,0.9,1.2,1.3c0.4,0.4,0.9,0.8,1.5,1.3c0.6,0.5,1.1,0.9,1.3,1.1
				c0.9,0.8,1.7,1.6,2.5,2.4c0.7,0.8,1.3,1.6,1.9,2.6c0.6,1,1,2,1.3,3.1c0.3,1.2,0.5,2.4,0.4,3.6c0.1,2.2-0.9,4.4-2.6,5.9
				c-1.7,1.5-3.9,2.3-6.2,2.3c-1.5,0-2.9-0.3-4.2-0.9c-1.2-0.5-2.2-1.3-3-2.4c-0.8-1-1.3-2.1-1.7-3.3
				C88.4,141.1,88.2,139.8,88.2,138.5z"/>
			<path class="st1" d="M109.3,148.3v-34.2h6.9v34.2H109.3z"/>
			<path class="st1" d="M120.3,148.3v-34.2h5l7.5,17.9v-17.9h5.7v34.2h-4.8l-7.5-19v19L120.3,148.3z"/>
			<path class="st1" d="M142.1,137v-11.5c0-8.1,3.3-12.1,10-12.1c6.7,0,10,4,10,12.1v11.3c0,1.3-0.1,2.5-0.3,3.8
				c-0.2,1.1-0.5,2.2-1,3.3c-0.5,1-1.1,1.9-1.9,2.6c-0.8,0.8-1.8,1.4-2.9,1.7c-1.3,0.4-2.6,0.7-3.9,0.6c-1.4,0-2.7-0.2-4-0.6
				c-1.1-0.4-2-0.9-2.9-1.7c-0.8-0.7-1.4-1.6-1.8-2.6c-0.5-1-0.8-2.1-1-3.3C142.2,139.6,142.1,138.3,142.1,137z M155.2,138.6v-14.8
				c0-3.4-1-5.1-3.1-5.1c-0.6,0-1.1,0.1-1.6,0.5c-0.4,0.3-0.8,0.8-0.9,1.3c-0.2,0.5-0.3,1.1-0.4,1.6c-0.1,0.6-0.1,1.1-0.1,1.7v14.8
				c0,3.3,1,5,3.1,5C154.2,143.6,155.2,141.9,155.2,138.6z"/>
			<path class="st1" d="M173.5,148.3v-34.2h8.3l3.6,22.8l3.9-22.8h8v34.2h-5.1l-0.1-24c-0.4,2.5-1,6.5-2,12c-1,5.5-1.6,9.5-2,12H183
				l-4.2-24.2l-0.1,24.2L173.5,148.3z"/>
			<path class="st1" d="M201.4,148.3v-34.2h14.3v4.8h-7.4v9.3h5.2v4.9h-5.2v10.6h7.4v4.8H201.4z M206.6,111.5l2.5-8.4h6.6l-5.3,8.4
				H206.6z"/>
			<path class="st1" d="M218.3,148.3v-34.2h7.1c1.9,0,3.8,0.2,5.6,0.6c1.3,0.3,2.5,1,3.5,2c0.9,1,1.5,2.1,1.8,3.4
				c0.4,1.6,0.5,3.3,0.5,5v11.2c0,1.2,0,2.3-0.1,3.2c-0.1,0.9-0.2,1.8-0.4,2.7c-0.2,0.8-0.5,1.5-0.9,2.2c-0.4,0.6-0.9,1.2-1.4,1.7
				c-0.6,0.5-1.3,1-2.1,1.2c-0.9,0.3-1.9,0.6-2.8,0.7c-1.2,0.2-2.5,0.3-3.7,0.3L218.3,148.3z M225.5,143.4c0.7,0,1.2,0,1.6,0
				c0.4,0,0.8-0.1,1.1-0.1c0.3,0,0.6-0.1,0.8-0.3c0.2-0.2,0.4-0.4,0.5-0.6c0.2-0.3,0.3-0.6,0.3-0.9c0-0.4,0.1-0.9,0.1-1.3v-18.4
				c0.1-0.9-0.3-1.7-1-2.2c-1.1-0.4-2.2-0.6-3.4-0.6V143.4z"/>
			<path class="st1" d="M240.4,148.3v-34.2h6.9v34.2H240.4z"/>
			<path class="st1" d="M251,137v-11.5c0-8.1,3.3-12.1,10-12.1c6.7,0,10,4,10,12.1v11.3c0,1.3-0.1,2.5-0.3,3.8
				c-0.2,1.1-0.5,2.2-1,3.3c-0.5,1-1.1,1.9-1.9,2.6c-0.8,0.8-1.8,1.4-2.9,1.7c-1.3,0.4-2.6,0.7-3.9,0.6c-1.3,0-2.7-0.2-3.9-0.6
				c-1.1-0.3-2-0.9-2.9-1.7c-0.8-0.7-1.4-1.6-1.9-2.5c-0.5-1-0.8-2.1-1-3.3C251.1,139.6,251,138.3,251,137z M264,138.6v-14.8
				c0-3.4-1-5.1-3.1-5.1c-0.6,0-1.1,0.1-1.6,0.5c-0.4,0.3-0.8,0.8-1,1.3c-0.2,0.5-0.3,1-0.4,1.6c-0.1,0.6-0.1,1.1-0.1,1.7v14.8
				c0,3.3,1,5,3.1,5S264,141.9,264,138.6z"/>
			<path class="st1" d="M50.2,171.6v-2.9c0-1.3,0.1-2.5,0.3-3.8c0.1-0.9,0.4-1.7,0.8-2.6c0.3-0.6,0.7-1.1,1.2-1.5
				c0.5-0.4,1-0.6,1.6-0.8c0.6-0.1,1.3-0.2,1.9-0.2c1.6-0.1,3.1,0.7,4,2c0.8,1.3,1.2,3.4,1.2,6.3c0,0.9,0,1.6,0,2.1h-8.4v3.2
				c0,1.1,0.1,2.3,0.2,3.4c0.1,0.7,0.3,1.4,0.6,2c0.2,0.4,0.6,0.7,1,0.9c0.4,0.2,0.9,0.2,1.3,0.2c0.8,0,1.6-0.5,2-1.2
				c0.6-1.2,0.9-2.6,0.8-3.9h2.4c-0.1,0.8-0.2,1.5-0.3,2.1c-0.1,0.6-0.3,1.3-0.5,1.9c-0.2,0.6-0.5,1.1-0.9,1.5
				c-0.4,0.4-0.9,0.8-1.4,1c-0.6,0.3-1.3,0.4-2,0.4c-1.2,0.1-2.4-0.2-3.5-0.9c-0.9-0.8-1.6-1.9-1.8-3.1
				C50.3,175.7,50.1,173.6,50.2,171.6z M52.8,168.9h5.8c0-0.5,0-0.9,0-1.4c0-0.5,0-1,0-1.4c0-0.5,0-0.9-0.1-1.4
				c0-0.4-0.1-0.8-0.2-1.2c-0.1-0.4-0.3-0.7-0.4-1c-0.2-0.3-0.4-0.5-0.7-0.7c-0.3-0.2-0.7-0.2-1-0.3c-0.5,0-1.1,0.1-1.6,0.3
				c-0.4,0.2-0.7,0.5-1,0.8c-0.3,0.5-0.5,1-0.5,1.6c-0.1,0.7-0.2,1.3-0.2,2C52.9,166.9,52.8,167.7,52.8,168.9L52.8,168.9z"/>
			<path class="st1" d="M64.9,181.2v-21h2.6v1.9c1.1-1.5,2.8-2.3,4.7-2.4c0.7,0,1.5,0.2,2.1,0.7c0.6,0.4,1.1,1,1.4,1.7
				c0.6-0.7,1.4-1.3,2.3-1.8c0.7-0.4,1.5-0.6,2.2-0.6c1,0,2.1,0.4,2.8,1.1c0.8,0.7,1.2,1.7,1.2,2.8v17.5h-2.6v-17
				c0.1-0.7-0.2-1.4-0.6-1.9c-0.4-0.4-1-0.6-1.6-0.6c-1.3,0.1-2.5,0.7-3.3,1.7v17.8h-2.6v-17c0-1.7-0.7-2.5-2.2-2.5
				c-0.7,0-1.3,0.2-1.9,0.6c-0.7,0.4-1.3,0.9-1.9,1.5v17.4H64.9z"/>
			<path class="st1" d="M96.2,176.3v-14.5h-2.9v-1.5h2.9v-7.4h2.6v7.4h3.4v1.5h-3.4v14.4c0,0.5,0,0.9,0,1.2c0,0.3,0.1,0.6,0.1,0.9
				c0,0.3,0.1,0.5,0.3,0.7c0.1,0.2,0.3,0.3,0.5,0.4c0.3,0.1,0.6,0.2,0.8,0.2c0.5,0,1,0,1.5-0.1v1.8c-0.7,0.2-1.5,0.3-2.3,0.3
				c-0.6,0-1.1-0.1-1.6-0.3c-0.4-0.2-0.8-0.4-1.1-0.8c-0.3-0.4-0.5-0.8-0.6-1.2c-0.2-0.5-0.3-0.9-0.3-1.4
				C96.2,177.4,96.2,176.9,96.2,176.3z"/>
			<path class="st1" d="M104.5,171.6v-2.9c0-1.3,0.1-2.5,0.3-3.8c0.1-0.9,0.4-1.7,0.8-2.6c0.3-0.6,0.7-1.1,1.2-1.5
				c0.5-0.4,1-0.6,1.6-0.8c0.6-0.1,1.3-0.2,1.9-0.2c1.6-0.1,3.1,0.7,4,2c0.8,1.3,1.2,3.4,1.2,6.3c0,0.9,0,1.6,0,2.1h-8.4v3.2
				c0,1.1,0.1,2.3,0.2,3.4c0.1,0.7,0.3,1.4,0.6,2c0.2,0.4,0.6,0.7,1,0.9c0.4,0.2,0.9,0.2,1.3,0.2c0.8,0,1.6-0.5,2-1.2
				c0.6-1.2,0.9-2.6,0.8-3.9h2.4c-0.1,0.8-0.2,1.5-0.3,2.1c-0.1,0.6-0.3,1.3-0.6,1.9c-0.2,0.6-0.5,1.1-0.9,1.5
				c-0.4,0.4-0.9,0.8-1.4,1c-0.6,0.3-1.3,0.4-2,0.4c-1.2,0.1-2.4-0.2-3.5-0.9c-0.9-0.8-1.6-1.9-1.8-3.1
				C104.7,175.7,104.5,173.7,104.5,171.6z M107.2,168.9h5.8c0-0.5,0-0.9,0-1.4c0-0.5,0-1,0-1.4c0-0.5,0-0.9-0.1-1.4
				c0-0.4-0.1-0.8-0.2-1.2c-0.1-0.4-0.3-0.7-0.4-1c-0.2-0.3-0.4-0.5-0.7-0.7c-0.3-0.2-0.7-0.2-1-0.3c-0.5,0-1.1,0.1-1.6,0.4
				c-0.4,0.2-0.7,0.5-1,0.8c-0.3,0.5-0.5,1-0.5,1.6c-0.1,0.7-0.2,1.3-0.2,2C107.2,166.9,107.2,167.7,107.2,168.9z"/>
			<path class="st1" d="M119.2,181.2v-21h2.6v1.9c1.1-1.5,2.8-2.4,4.7-2.4c0.7,0,1.5,0.2,2.1,0.7c0.6,0.4,1.1,1,1.4,1.7
				c0.6-0.7,1.4-1.3,2.3-1.8c0.7-0.4,1.5-0.6,2.2-0.6c1,0,2.1,0.4,2.8,1.1c0.8,0.7,1.2,1.7,1.2,2.8v17.6h-2.6v-17
				c0.1-0.7-0.2-1.4-0.6-1.9c-0.4-0.4-1-0.6-1.6-0.6c-1.3,0.1-2.5,0.7-3.3,1.7v17.8h-2.6v-17c0-1.7-0.7-2.5-2.2-2.5
				c-0.7,0-1.3,0.2-1.9,0.6c-0.7,0.4-1.3,0.9-1.8,1.5v17.4H119.2z"/>
			<path class="st1" d="M142.6,188v-27.7h2.6v2c0.9-1.5,2.5-2.5,4.2-2.4c0.3,0,0.6,0,0.9,0.1c0.3,0.1,0.6,0.2,0.9,0.3
				c0.3,0.2,0.6,0.4,0.8,0.7c0.3,0.4,0.5,0.8,0.7,1.2c0.3,0.6,0.5,1.2,0.6,1.8c0.2,0.8,0.3,1.7,0.4,2.5c0.1,1,0.1,2.1,0.1,3.4v1.7
				c0,1.6-0.1,3.1-0.3,4.7c-0.1,1-0.4,2-0.7,3c-0.2,0.6-0.6,1.2-1.1,1.6c-0.3,0.3-0.8,0.6-1.2,0.8c-0.4,0.1-0.9,0.2-1.3,0.2
				c-0.8,0-1.5-0.2-2.1-0.6c-0.8-0.5-1.4-1.1-1.9-1.8v8.7H142.6z M151.2,171.5v-1.7c0-1.1,0-2.1-0.1-2.9c-0.1-0.9-0.1-1.6-0.2-2.1
				c-0.1-0.5-0.2-1-0.3-1.4c-0.1-0.3-0.2-0.6-0.4-0.9c-0.1-0.2-0.3-0.4-0.5-0.5c-0.2-0.1-0.3-0.2-0.5-0.2c-0.2,0-0.4,0-0.6,0
				c-0.6,0-1.2,0.2-1.7,0.6c-0.7,0.4-1.2,0.9-1.7,1.5v13.8c1.2,1.4,2.4,2.1,3.5,2.1c0.2,0,0.4,0,0.6-0.1c0.2-0.1,0.4-0.2,0.6-0.3
				c0.2-0.2,0.4-0.5,0.5-0.8c0.2-0.5,0.3-0.9,0.4-1.4c0.2-0.8,0.3-1.5,0.3-2.3C151.2,173.9,151.2,172.7,151.2,171.5z"/>
			<path class="st1" d="M157.6,171.3v-1.1c0-0.9,0-1.6,0-2.1c0-0.5,0-1.2,0.1-2c0-0.7,0.1-1.3,0.3-2c0.2-0.6,0.4-1.1,0.6-1.6
				c0.2-0.5,0.6-1,1-1.4c0.4-0.4,0.9-0.6,1.5-0.8c1.3-0.5,2.8-0.5,4.1,0c0.5,0.2,1,0.5,1.5,0.8c0.4,0.4,0.8,0.9,1,1.4
				c0.2,0.5,0.4,1.1,0.6,1.6c0.2,0.7,0.3,1.3,0.3,2c0.1,0.9,0.1,1.5,0.1,2c0,0.5,0,1.2,0,2.1v1.1c0,0.8,0,1.4,0,1.8
				c0,0.4,0,0.9-0.1,1.7c0,0.5-0.1,1.1-0.1,1.6c-0.1,0.4-0.2,0.9-0.3,1.4c-0.1,0.5-0.2,0.9-0.5,1.3c-0.2,0.3-0.4,0.7-0.7,1
				c-0.3,0.4-0.6,0.7-1,0.9c-0.4,0.2-0.8,0.4-1.3,0.5c-1.1,0.3-2.2,0.3-3.3,0c-0.4-0.1-0.9-0.3-1.3-0.5c-0.4-0.2-0.7-0.5-1-0.9
				c-0.2-0.3-0.5-0.7-0.7-1c-0.2-0.4-0.4-0.9-0.5-1.3c-0.1-0.6-0.2-1.1-0.3-1.4c-0.1-0.5-0.1-1.1-0.1-1.6c0-0.7,0-1.3-0.1-1.7
				C157.5,172.7,157.5,172.1,157.6,171.3z M160.2,170.2v1.1c-0.1,2.3,0.1,4.6,0.6,6.8c0.3,1.3,1.6,2.1,2.9,1.8
				c0.9-0.2,1.6-0.9,1.8-1.8c0.5-2.2,0.7-4.5,0.6-6.8v-1.1c0-1.1,0-2,0-2.8c0-0.8-0.1-1.5-0.2-2.2c0-0.6-0.2-1.1-0.3-1.7
				c-0.1-0.4-0.3-0.8-0.5-1.1c-0.2-0.3-0.5-0.5-0.8-0.7c-0.7-0.3-1.5-0.3-2.2,0c-0.3,0.1-0.6,0.4-0.8,0.7c-0.2,0.3-0.4,0.7-0.5,1.1
				c-0.2,0.5-0.3,1.1-0.3,1.7c-0.1,0.7-0.1,1.4-0.1,2.2C160.2,168.1,160.2,169.1,160.2,170.2z"/>
			<path class="st1" d="M179.9,155.5v-3.1h2.6v3.1H179.9z M179.9,181.2v-21h2.6v21H179.9z"/>
			<path class="st1" d="M186.8,181.2v-21h2.6v2c0.5-0.8,1.2-1.4,2-1.8c0.7-0.4,1.6-0.6,2.4-0.6c1.1,0,2.1,0.5,2.7,1.3
				c0.8,1,1.3,2.3,1.2,3.7v16.5h-2.7v-16.5c0.1-0.8-0.1-1.6-0.6-2.3c-0.4-0.5-1-0.7-1.6-0.7c-0.6,0-1.2,0.2-1.8,0.6
				c-0.7,0.4-1.2,0.9-1.7,1.6v17.4H186.8z"/>
			<path class="st1" d="M202.7,176.3v-14.5h-2.9v-1.5h2.9v-7.4h2.6v7.4h3.4v1.5h-3.4v14.4c0,0.5,0,0.9,0,1.2c0,0.3,0.1,0.6,0.1,0.9
				c0,0.3,0.1,0.5,0.3,0.7c0.1,0.2,0.3,0.3,0.5,0.4c0.3,0.1,0.6,0.2,0.9,0.2c0.5,0,1,0,1.5-0.1v1.8c-0.7,0.2-1.5,0.3-2.3,0.3
				c-0.6,0-1.1-0.1-1.7-0.3c-0.4-0.2-0.8-0.4-1.1-0.8c-0.3-0.4-0.5-0.8-0.6-1.2c-0.1-0.5-0.2-0.9-0.3-1.4
				C202.7,177.4,202.7,176.9,202.7,176.3z"/>
			<path class="st1" d="M211,171.6v-2.9c0-1.3,0.1-2.5,0.3-3.8c0.1-0.9,0.4-1.7,0.8-2.6c0.3-0.6,0.7-1.1,1.2-1.5
				c0.5-0.4,1-0.6,1.6-0.8c0.6-0.1,1.3-0.2,1.9-0.2c1.6-0.1,3.1,0.7,4,2c0.8,1.3,1.2,3.4,1.2,6.3c0,0.9,0,1.6,0,2.1h-8.4v3.2
				c0,1.1,0.1,2.3,0.2,3.4c0.1,0.7,0.3,1.4,0.6,2c0.2,0.4,0.6,0.7,1,0.9c0.4,0.2,0.9,0.2,1.3,0.2c0.8,0,1.6-0.5,2-1.2
				c0.6-1.2,0.9-2.6,0.8-3.9h2.4c-0.1,0.8-0.2,1.5-0.3,2.1c-0.1,0.6-0.3,1.3-0.6,1.9c-0.2,0.6-0.5,1.1-0.9,1.5
				c-0.4,0.4-0.9,0.8-1.4,1c-0.6,0.3-1.3,0.4-2,0.4c-1.2,0.1-2.4-0.2-3.5-0.9c-0.9-0.8-1.6-1.9-1.8-3.1
				C211.1,175.7,210.9,173.6,211,171.6z M213.7,168.9h5.8c0-0.5,0-0.9,0-1.4c0-0.5,0-1,0-1.4c0-0.5,0-0.9-0.1-1.4
				c0-0.4-0.1-0.8-0.2-1.2c-0.1-0.4-0.3-0.7-0.4-1c-0.2-0.3-0.4-0.5-0.7-0.7c-0.3-0.2-0.7-0.2-1-0.3c-0.5,0-1.1,0.1-1.6,0.3
				c-0.4,0.2-0.7,0.5-1,0.8c-0.3,0.5-0.5,1-0.5,1.6c-0.1,0.7-0.2,1.3-0.2,2C213.7,166.9,213.7,167.7,213.7,168.9L213.7,168.9z"/>
			<path class="st1" d="M227.4,177.5c-0.1,0.3,0.1,0.5,0.5,0.6c0.4,0.1,1.3,0.4,2.9,0.7l1.1,0.2c0.8,0.2,1.7,0.4,2.5,0.6
				c0.7,0.2,1.3,0.5,1.9,0.9c0.6,0.3,1,0.7,1.4,1.3c0.3,0.5,0.5,1.1,0.5,1.7c0,0.5-0.1,1.1-0.3,1.6c-0.2,0.4-0.4,0.8-0.7,1.2
				c-0.3,0.3-0.7,0.6-1.1,0.8c-0.4,0.2-0.8,0.4-1.3,0.5c-0.4,0.1-0.9,0.2-1.4,0.3c-0.5,0.1-0.9,0.1-1.3,0.1h-1.1c-4.7,0-7-0.9-7-2.8
				c0-1.1,0.4-2.3,1.1-3.1c0.8-0.9,1.7-1.7,2.8-2.2c-0.2,0-0.5-0.1-0.9-0.2c-0.5-0.1-0.9-0.3-1.3-0.5c-0.5-0.2-0.7-0.5-0.7-0.7
				c0-0.2,0-0.3,0.1-0.5c0-0.2,0.1-0.4,0.2-0.6c0.1-0.2,0.2-0.4,0.3-0.6c0.1-0.2,0.2-0.4,0.4-0.6l0.4-0.6l0.4-0.6l0.4-0.5l0.3-0.4
				l0.2-0.3c-0.9-0.8-1.5-1.8-1.9-2.9c-0.4-1.2-0.6-2.4-0.6-3.7c0-0.7,0.1-1.3,0.2-2c0.1-0.7,0.4-1.4,0.7-2c0.3-0.6,0.7-1.2,1.1-1.8
				c0.5-0.5,1.1-1,1.7-1.2c0.7-0.3,1.5-0.5,2.3-0.5c1,0,2,0.2,2.8,0.8c0.9,0.7,1.6,1.5,2.2,2.4c0.2-0.4,0.4-0.7,0.6-1
				c0.2-0.3,0.4-0.6,0.7-0.9c0.3-0.3,0.6-0.6,0.9-0.9c0.3-0.2,0.6-0.4,1-0.5v2.5c-0.5,0.1-1,0.3-1.4,0.6c-0.5,0.3-0.9,0.7-1.2,1.1
				c0.4,1,0.6,2.1,0.7,3.2c0,0.8-0.1,1.6-0.2,2.4c-0.1,0.7-0.4,1.4-0.7,2.1c-0.3,0.6-0.7,1.2-1.1,1.7c-0.5,0.5-1.1,0.9-1.7,1.1
				c-0.7,0.3-1.5,0.4-2.3,0.4c-0.9,0-1.7-0.1-2.5-0.4C228.1,175.5,227.6,176.5,227.4,177.5z M232.8,181.2l-3.7-0.8
				c-0.7,0.6-1.3,1.2-1.8,2c-0.5,0.6-0.8,1.4-0.9,2.2c0,0.2,0.1,0.5,0.2,0.7c0.1,0.2,0.3,0.4,0.6,0.5c0.2,0.1,0.5,0.2,0.7,0.3
				c0.3,0.1,0.7,0.1,1,0.2l0.9,0.1h1.1c3.1,0,4.6-0.8,4.6-2.3c0-0.7-0.2-1.4-0.6-1.9C234.4,181.6,233.6,181.3,232.8,181.2z
				 M229.6,172.6c0.5,0.3,1,0.4,1.5,0.4c0.5,0,1.1-0.1,1.5-0.4c0.4-0.2,0.8-0.6,1-1c0.2-0.4,0.4-0.9,0.6-1.3
				c0.1-0.5,0.2-0.9,0.3-1.4c0-0.4,0.1-0.8,0.1-1.2c0-0.4,0-0.8-0.1-1.2c0-0.5-0.1-1-0.3-1.5c-0.1-0.5-0.3-1-0.6-1.5
				c-0.2-0.4-0.6-0.8-1-1.1c-0.4-0.3-1-0.5-1.5-0.5c-0.5,0-0.9,0.1-1.3,0.3c-0.4,0.2-0.7,0.5-0.9,0.8c-0.2,0.3-0.4,0.7-0.6,1.1
				c-0.2,0.4-0.3,0.8-0.4,1.3c-0.1,0.5-0.1,0.9-0.2,1.2c0,0.3,0,0.7,0,1s0,0.9,0.1,1.3c0,0.5,0.1,0.9,0.3,1.4
				c0.1,0.5,0.3,0.9,0.6,1.4C228.8,172.1,229.2,172.4,229.6,172.6z"/>
			<path class="st1" d="M241.2,181.2v-21h2.6v3c0.3-1,0.9-1.9,1.8-2.4c0.8-0.5,1.7-0.8,2.6-0.8v2.6c-0.1,0-0.3-0.1-0.4-0.1
				c-2.7,0-4,1-4,3.1v15.6H241.2z"/>
			<path class="st1" d="M258.1,181.2l-0.3-2.5c-0.5,0.9-1.2,1.7-2.1,2.2c-0.7,0.5-1.5,0.7-2.4,0.8c-1.1,0-2.2-0.5-2.9-1.3
				c-0.9-0.9-1.3-2.1-1.3-3.3c0-0.4,0-0.7,0-0.9c0-0.2,0-0.5,0.1-0.9c0-0.3,0.1-0.6,0.2-0.9c0.1-0.3,0.3-0.6,0.4-0.9
				c0.2-0.3,0.4-0.7,0.7-0.9c0.3-0.3,0.6-0.6,1-0.9c0.5-0.4,0.9-0.7,1.4-1c0.5-0.3,1.2-0.7,1.9-1s1.6-0.7,2.5-1.1v-0.2
				c0-1,0-2-0.2-3.1c-0.1-0.7-0.2-1.3-0.4-2c-0.1-0.4-0.3-0.8-0.6-1.1c-0.2-0.2-0.4-0.4-0.7-0.5c-0.3-0.1-0.5-0.1-0.8-0.1
				c-0.6,0-1.2,0.2-1.6,0.6c-0.3,0.3-0.6,0.8-0.7,1.2c-0.2,0.7-0.3,1.4-0.4,2.1v0.1h-2.7c0-1.6,0.6-3.1,1.7-4.4
				c0.9-1,2.3-1.6,3.7-1.6c0.8,0,1.5,0.1,2.3,0.4c0.6,0.2,1.1,0.6,1.5,1c0.4,0.5,0.7,1,0.9,1.5c0.2,0.6,0.4,1.1,0.5,1.7
				c0.1,0.6,0.1,1.2,0.1,1.8v10.1c0,0.7,0,1.5,0.1,2.3c0.1,0.8,0.1,1.4,0.2,1.8l0.1,0.7L258.1,181.2z M257.6,176.9v-7.4
				c-0.9,0.6-1.5,1.1-2,1.4c-0.5,0.4-1,0.8-1.6,1.3c-0.5,0.4-0.9,0.8-1.2,1.3c-0.3,0.4-0.5,0.9-0.7,1.4c-0.2,0.5-0.3,1.1-0.3,1.6
				c-0.1,0.8,0.2,1.6,0.6,2.2c0.4,0.5,0.9,0.7,1.5,0.7c0.7,0,1.4-0.3,2-0.7C256.6,178.3,257.2,177.7,257.6,176.9L257.6,176.9z"/>
		</g>
	</g>
	<g id="Camada_19">
		<g id="linhas2">
			<line class="st2" x1="138.9" y1="65.5" x2="176.5" y2="62.1"/>
			<line class="st2" x1="128.6" y1="78.1" x2="162.8" y2="88.3"/>
			<line class="st2" x1="115" y1="33.6" x2="135.5" y2="51.9"/>
			<line class="st2" x1="114.4" y1="33.1" x2="158.3" y2="30.2"/>
			<line class="st2" x1="143.5" y1="45" x2="179.4" y2="10.3"/>
			<line class="st2" x1="138.9" y1="25.6" x2="183.4" y2="9.7"/>
			<line class="st2" x1="182.2" y1="9.7" x2="180.5" y2="98"/>
		</g>
		<g id="linha1">
			<line class="st3" x1="128.1" y1="77.5" x2="142.9" y2="82.1"/>
			<line class="st3" x1="140.6" y1="63.8" x2="144" y2="44.5"/>
			<line class="st3" x1="115" y1="32.5" x2="144.6" y2="5.1"/>
			<line class="st3" x1="144" y1="5.7" x2="139.5" y2="26.2"/>
			<line class="st3" x1="139.5" y1="26.2" x2="114.4" y2="33.1"/>
			<line class="st3" x1="139.5" y1="26.2" x2="144" y2="44.5"/>
			<line class="st3" x1="114.4" y1="33.1" x2="118.9" y2="66.1"/>
			<line class="st3" x1="118.9" y1="66.1" x2="140.6" y2="63.8"/>
			<line class="st3" x1="118.9" y1="66.1" x2="142.9" y2="95.8"/>
			<line class="st3" x1="142.9" y1="95.8" x2="140.6" y2="63.8"/>
			<line class="st3" x1="142.9" y1="95.8" x2="163.4" y2="87.8"/>
			<line class="st3" x1="164.6" y1="87.8" x2="180.5" y2="98"/>
			<line class="st3" x1="180.5" y1="98" x2="206.7" y2="71.8"/>
			<line class="st3" x1="164.6" y1="87.8" x2="206.7" y2="71.8"/>
			<line class="st3" x1="180.5" y1="98" x2="180.5" y2="82.1"/>
			<line class="st3" x1="142.9" y1="95.8" x2="177.1" y2="62.7"/>
			<line class="st3" x1="177.1" y1="62.7" x2="197.6" y2="38.8"/>
			<line class="st3" x1="197.6" y1="38.8" x2="206.7" y2="33.1"/>
			<line class="st3" x1="206.7" y1="33.1" x2="206.7" y2="71.8"/>
			<line class="st3" x1="197.6" y1="38.8" x2="206.7" y2="71.8"/>
			<line class="st3" x1="177.1" y1="62.7" x2="206.7" y2="71.8"/>
			<line class="st3" x1="144" y1="44.5" x2="197.6" y2="38.8"/>
			<line class="st3" x1="206.7" y1="33.1" x2="144" y2="5.7"/>
			<line class="st3" x1="144" y1="5.7" x2="183.9" y2="6.8"/>
			<line class="st3" x1="183.9" y1="6.8" x2="206.7" y2="33.1"/>
			<line class="st3" x1="169.1" y1="17.1" x2="183.9" y2="6.8"/>
			<line class="st3" x1="181.6" y1="21.7" x2="183.9" y2="6.8"/>
			<line class="st3" x1="118.9" y1="66.1" x2="144" y2="44.5"/>
			<line class="st3" x1="114.4" y1="33.1" x2="129.2" y2="57"/>
		</g>
		<g id="bolas">
			<circle class="st4" cx="205.5" cy="70.7" r="6.3"/>
			<circle class="st4" cx="180.5" cy="97.3" r="4.6"/>
			<circle class="st4" cx="142.9" cy="94.1" r="6.8"/>
			<ellipse transform="matrix(0.7568 -0.6537 0.6537 0.7568 -18.1418 127.9359)" class="st4" cx="162.8" cy="88.3" rx="4" ry="4"/>
			<circle class="st5" cx="206.2" cy="33.6" r="4.6"/>
			<circle class="st5" cx="119.5" cy="65" r="5.1"/>
			<circle class="st5" cx="144" cy="44.5" r="4"/>
			<circle class="st5" cx="177.1" cy="62.1" r="3.4"/>
			<ellipse transform="matrix(0.8851 -0.4655 0.4655 0.8851 3.9894 95.9687)" class="st5" cx="196.3" cy="39.9" rx="4.4" ry="4.4"/>
			<ellipse transform="matrix(0.8851 -0.4655 0.4655 0.8851 -14.2147 72.3837)" class="st5" cx="139.5" cy="65" rx="4.5" ry="4.5"/>
			<circle class="st6" cx="114.4" cy="33.1" r="4.6"/>
			<circle class="st6" cx="139.5" cy="26.2" r="4"/>
			<circle class="st6" cx="144" cy="6.3" r="6.3"/>
			<circle class="st6" cx="182.2" cy="8.7" r="6.8"/>
		</g>
	</g>
</g>
<g id="Camada_2_1_" class="st7">
	
		<image style="display:inline;overflow:visible;" width="2000" height="1728" xlink:href="C:\Users\wagner.souza\Desktop\Flag_map_of_Rio_Grande_Do_Sul.png"  transform="matrix(8.541297e-02 0 0 8.541297e-02 335.8669 51.3388)">
	</image>
</g>
</svg>
