<svg xmlns="http://www.w3.org/2000/svg" viewBox="0 0 321.11 85.01"><defs><style>.cls-1,.cls-2{fill:none;stroke-miterlimit:10;}.cls-1{stroke:#147a7a;stroke-width:2px;}.cls-2{stroke:#00b1b7;stroke-width:3px;}.cls-3{fill:#ee964a;}.cls-4{fill:#b54e57;}.cls-5{fill:#00b1b7;}.cls-6{fill:#f2f2f2;}</style></defs><title>Ativo 1</title><g id="Camada_2" data-name="Camada 2"><g id="Camada_19" data-name="Camada 19"><g id="linhas2"><line class="cls-1" x1="260.19" y1="54.57" x2="292.1" y2="51.67"/><line class="cls-1" x1="251.48" y1="65.21" x2="280.5" y2="73.91"/><line class="cls-1" x1="239.88" y1="27.49" x2="257.29" y2="42.97"/><line class="cls-1" x1="239.4" y1="27.01" x2="276.63" y2="24.59"/><line class="cls-1" x1="264.06" y1="37.16" x2="294.52" y2="7.67"/><line class="cls-1" x1="260.19" y1="20.72" x2="297.9" y2="7.19"/><line class="cls-1" x1="296.94" y1="7.19" x2="295.49" y2="82.13"/></g><g id="linha1"><line class="cls-2" x1="251" y1="64.73" x2="263.57" y2="68.59"/><line class="cls-2" x1="261.64" y1="53.12" x2="264.54" y2="36.68"/><line class="cls-2" x1="239.88" y1="26.53" x2="265.02" y2="3.32"/><line class="cls-2" x1="264.54" y1="3.8" x2="260.67" y2="21.21"/><line class="cls-2" x1="260.67" y1="21.21" x2="239.4" y2="27.01"/><line class="cls-2" x1="260.67" y1="21.21" x2="264.54" y2="36.68"/><line class="cls-2" x1="239.4" y1="27.01" x2="243.26" y2="55.05"/><line class="cls-2" x1="243.26" y1="55.05" x2="261.64" y2="53.12"/><line class="cls-2" x1="243.26" y1="55.05" x2="263.57" y2="80.2"/><line class="cls-2" x1="263.57" y1="80.2" x2="261.64" y2="53.12"/><line class="cls-2" x1="263.57" y1="80.2" x2="280.98" y2="73.43"/><line class="cls-2" x1="281.95" y1="73.43" x2="295.49" y2="82.13"/><line class="cls-2" x1="295.49" y1="82.13" x2="317.73" y2="59.89"/><line class="cls-2" x1="281.95" y1="73.43" x2="317.73" y2="59.89"/><line class="cls-2" x1="295.49" y1="82.13" x2="295.49" y2="68.59"/><line class="cls-2" x1="263.57" y1="80.2" x2="292.58" y2="52.15"/><line class="cls-2" x1="292.58" y1="52.15" x2="309.99" y2="31.85"/><line class="cls-2" x1="309.99" y1="31.85" x2="317.73" y2="27.01"/><line class="cls-2" x1="317.73" y1="27.01" x2="317.73" y2="59.89"/><line class="cls-2" x1="309.99" y1="31.85" x2="317.73" y2="59.89"/><line class="cls-2" x1="292.58" y1="52.15" x2="317.73" y2="59.89"/><line class="cls-2" x1="264.54" y1="36.68" x2="309.99" y2="31.85"/><line class="cls-2" x1="317.73" y1="27.01" x2="264.54" y2="3.8"/><line class="cls-2" x1="264.54" y1="3.8" x2="298.39" y2="4.77"/><line class="cls-2" x1="298.39" y1="4.77" x2="317.73" y2="27.01"/><line class="cls-2" x1="285.81" y1="13.47" x2="298.39" y2="4.77"/><line class="cls-2" x1="296.45" y1="17.34" x2="298.39" y2="4.77"/><line class="cls-2" x1="243.26" y1="55.05" x2="264.54" y2="36.68"/><line class="cls-2" x1="239.4" y1="27.01" x2="251.97" y2="47.32"/></g><g id="bolas"><circle class="cls-3" cx="265.51" cy="6.7" r="5.32"/><circle class="cls-3" cx="296.94" cy="8.15" r="5.8"/><circle class="cls-3" cx="316.28" cy="26.53" r="3.87"/><circle class="cls-3" cx="315.79" cy="58.92" r="5.32"/><circle class="cls-3" cx="295" cy="80.68" r="3.87"/><circle class="cls-3" cx="264.06" cy="78.75" r="5.8"/><circle class="cls-4" cx="244.23" cy="54.09" r="4.35"/><circle class="cls-3" cx="239.88" cy="27.49" r="3.87"/><circle class="cls-4" cx="259.7" cy="21.21" r="3.38"/><circle class="cls-5" cx="263.57" cy="37.65" r="3.38"/><circle class="cls-3" cx="292.1" cy="51.67" r="2.9"/><circle class="cls-4" cx="308.08" cy="32.83" r="3.75" transform="translate(20.12 147.16) rotate(-27.74)"/><circle class="cls-3" cx="260.21" cy="54.29" r="3.85" transform="translate(4.63 127.34) rotate(-27.74)"/><circle class="cls-4" cx="280.32" cy="74.24" r="3.41" transform="translate(19.65 201.28) rotate(-40.82)"/></g><path class="cls-6" d="M.14,45.17V11H14.4v4.75H7.06V25h5.2v4.86H7.06V40.42H14.4v4.75Z"/><path class="cls-6" d="M16.87,45.17V11h5l7.5,17.89V11h5.73v34.2H30.3l-7.48-19v19Z"/><path class="cls-6" d="M38,35.39,45,34q0,1,0,1.84a14.38,14.38,0,0,0,.2,1.74,6.25,6.25,0,0,0,.44,1.54,2.75,2.75,0,0,0,.78,1,1.82,1.82,0,0,0,1.19.41q2.05,0,2.05-2.62,0-3.59-4-7.14L43.47,29q-1-.86-1.63-1.42A19.32,19.32,0,0,1,40.41,26a10,10,0,0,1-1.29-1.87,10.51,10.51,0,0,1-.8-2.17,10.62,10.62,0,0,1-.33-2.7,8.49,8.49,0,0,1,2.64-6.58,10,10,0,0,1,7-2.42,8.34,8.34,0,0,1,6.17,2.58,8.55,8.55,0,0,1,2.54,6.23l0,.25v.57l-7.14,1c0-.14,0-.36,0-.66s0-.54,0-.73a8.72,8.72,0,0,0-.09-1.31A7,7,0,0,0,48.84,17a2.17,2.17,0,0,0-.67-1,1.69,1.69,0,0,0-1.1-.37,1.89,1.89,0,0,0-1.71.89,3.83,3.83,0,0,0-.57,2.11,5.88,5.88,0,0,0,.33,2,5.65,5.65,0,0,0,1,1.74,14.81,14.81,0,0,0,1.24,1.34q.57.53,1.52,1.3t1.35,1.13a29.37,29.37,0,0,1,2.47,2.42,19,19,0,0,1,1.9,2.55,11.33,11.33,0,0,1,1.34,3.08,13.67,13.67,0,0,1,.45,3.57,7.52,7.52,0,0,1-2.56,5.88,9,9,0,0,1-6.23,2.29A9.73,9.73,0,0,1,43.38,45a7.85,7.85,0,0,1-3-2.37,11.58,11.58,0,0,1-1.74-3.32A14.37,14.37,0,0,1,38,35.39Z"/><path class="cls-6" d="M59.14,45.17V11H66V45.17Z"/><path class="cls-6" d="M70.11,45.17V11h5l7.5,17.89V11h5.73v34.2H83.54l-7.48-19v19Z"/><path class="cls-6" d="M91.95,33.93V22.44q0-12.11,10-12.11t10,12.11V33.76a22.07,22.07,0,0,1-.3,3.79,13,13,0,0,1-1,3.29,8.87,8.87,0,0,1-1.86,2.65,7.93,7.93,0,0,1-2.86,1.72,11.53,11.53,0,0,1-3.95.63A11.65,11.65,0,0,1,98,45.22a8,8,0,0,1-2.85-1.67A8.58,8.58,0,0,1,93.3,41a12.8,12.8,0,0,1-1-3.26A21.2,21.2,0,0,1,91.95,33.93ZM105,35.49V20.72q0-5.05-3.09-5.05a2.63,2.63,0,0,0-1.58.46,2.7,2.7,0,0,0-.95,1.27A8.07,8.07,0,0,0,99,19a11,11,0,0,0-.12,1.72V35.49q0,5,3.08,5T105,35.49Z"/><path class="cls-6" d="M123.35,45.17V11h8.28l3.65,22.78L139.21,11h8V45.17h-5.09l-.15-24q-.57,3.7-2,12t-2,12h-5.16L128.61,21l-.15,24.19Z"/><path class="cls-6" d="M151.26,45.17V11h14.26v4.75h-7.35V25h5.2v4.86h-5.2V40.42h7.35v4.75Zm5.2-36.78L159,0h6.55l-5.26,8.39Z"/><path class="cls-6" d="M168.14,45.17V11h7.14a21.43,21.43,0,0,1,5.63.62,7.07,7.07,0,0,1,3.47,2A7.79,7.79,0,0,1,186.13,17a21.69,21.69,0,0,1,.48,5v11.2q0,1.82-.11,3.18a17.64,17.64,0,0,1-.43,2.66,7.81,7.81,0,0,1-.85,2.2,7.45,7.45,0,0,1-1.4,1.68,6.34,6.34,0,0,1-2.06,1.23,14,14,0,0,1-2.83.7,25,25,0,0,1-3.73.25Zm7.18-4.84q1,0,1.56,0a7.83,7.83,0,0,0,1.14-.14,2.11,2.11,0,0,0,.83-.31,2,2,0,0,0,.49-.58,2.3,2.3,0,0,0,.29-.9,10.66,10.66,0,0,0,.07-1.3V18.67a2.32,2.32,0,0,0-1-2.24,7.67,7.67,0,0,0-3.38-.57Z"/><path class="cls-6" d="M190.24,45.17V11h6.91V45.17Z"/><path class="cls-6" d="M200.78,33.93V22.44q0-12.11,10-12.11t10,12.11V33.76a22.07,22.07,0,0,1-.3,3.79,13,13,0,0,1-1,3.29,8.87,8.87,0,0,1-1.86,2.65,7.93,7.93,0,0,1-2.86,1.72,11.53,11.53,0,0,1-3.95.63,11.65,11.65,0,0,1-3.93-.62A8,8,0,0,1,204,43.55,8.58,8.58,0,0,1,202.14,41a12.8,12.8,0,0,1-1-3.26A21.2,21.2,0,0,1,200.78,33.93Zm13.08,1.56V20.72q0-5.05-3.09-5.05a2.63,2.63,0,0,0-1.58.46,2.7,2.7,0,0,0-.95,1.27,8.07,8.07,0,0,0-.43,1.59,11,11,0,0,0-.12,1.72V35.49q0,5,3.08,5T213.86,35.49Z"/><path class="cls-6" d="M0,68.48V65.56a21.88,21.88,0,0,1,.31-3.79,9.87,9.87,0,0,1,.78-2.56,4.22,4.22,0,0,1,1.24-1.53,4.41,4.41,0,0,1,1.57-.77,7.87,7.87,0,0,1,1.89-.2,4.39,4.39,0,0,1,4,2q1.23,2,1.23,6.3,0,1.31,0,2.15H2.64v3.2a23.28,23.28,0,0,0,.2,3.38,5.08,5.08,0,0,0,.64,2,2.3,2.3,0,0,0,1,.89,3.37,3.37,0,0,0,1.33.23,2.33,2.33,0,0,0,2-1.18,7.42,7.42,0,0,0,.81-3.94H11q-.11,1.19-.28,2.12a9.81,9.81,0,0,1-.55,1.85,5.19,5.19,0,0,1-.93,1.54,4.11,4.11,0,0,1-1.43,1,5,5,0,0,1-2,.38,5.86,5.86,0,0,1-3.46-.88A5.28,5.28,0,0,1,.54,74.64,24.6,24.6,0,0,1,0,68.48Zm2.66-2.62H8.47q0-.7,0-1.42t0-1.44q0-.73-.1-1.39a6.13,6.13,0,0,0-.24-1.23,4.19,4.19,0,0,0-.44-1A1.88,1.88,0,0,0,7,58.72a2.18,2.18,0,0,0-1-.25,3.2,3.2,0,0,0-1.58.35,2.94,2.94,0,0,0-1,.82,3.72,3.72,0,0,0-.5,1.59,18.62,18.62,0,0,0-.18,2Q2.66,64.05,2.66,65.85Z"/><path class="cls-6" d="M14.71,78.13v-21h2.64v1.94A6,6,0,0,1,22,56.71a3.67,3.67,0,0,1,2.06.67,3.79,3.79,0,0,1,1.43,1.71,7.34,7.34,0,0,1,2.26-1.78,5.13,5.13,0,0,1,2.24-.6,4,4,0,0,1,2.81,1.12,3.67,3.67,0,0,1,1.2,2.8V78.13H31.38v-17a2.67,2.67,0,0,0-.59-1.92,2.08,2.08,0,0,0-1.57-.6,4.84,4.84,0,0,0-3.32,1.7V78.13H23.29v-17q0-2.5-2.22-2.5a3.83,3.83,0,0,0-1.88.56,7.29,7.29,0,0,0-1.85,1.52V78.13Z"/><path class="cls-6" d="M46,73.18V58.65H43.14V57.18H46V49.74h2.62v7.43H52v1.47H48.61V73.06q0,.75,0,1.18a6.25,6.25,0,0,0,.11.93,1.83,1.83,0,0,0,.28.74,1.42,1.42,0,0,0,.53.41,1.92,1.92,0,0,0,.85.17,7.67,7.67,0,0,0,1.54-.14v1.8a9.24,9.24,0,0,1-2.27.3A4.18,4.18,0,0,1,48,78.14a2.84,2.84,0,0,1-1.08-.76,3.34,3.34,0,0,1-.59-1.21A7.06,7.06,0,0,1,46,74.77Q46,74.11,46,73.18Z"/><path class="cls-6" d="M54.34,68.48V65.56a21.88,21.88,0,0,1,.31-3.79,9.87,9.87,0,0,1,.78-2.56,4.22,4.22,0,0,1,1.24-1.53,4.41,4.41,0,0,1,1.57-.77,7.87,7.87,0,0,1,1.89-.2,4.39,4.39,0,0,1,4,2q1.23,2,1.23,6.3,0,1.31,0,2.15H57v3.2a23.28,23.28,0,0,0,.2,3.38,5.08,5.08,0,0,0,.64,2,2.3,2.3,0,0,0,1,.89,3.37,3.37,0,0,0,1.33.23,2.33,2.33,0,0,0,2-1.18,7.42,7.42,0,0,0,.81-3.94h2.45q-.11,1.19-.28,2.12a9.81,9.81,0,0,1-.55,1.85,5.19,5.19,0,0,1-.93,1.54,4.11,4.11,0,0,1-1.43,1,5,5,0,0,1-2,.38,5.86,5.86,0,0,1-3.46-.88,5.28,5.28,0,0,1-1.81-3.08A24.6,24.6,0,0,1,54.34,68.48ZM57,65.85H62.8q0-.7,0-1.42t0-1.44q0-.73-.1-1.39a6.13,6.13,0,0,0-.24-1.23,4.19,4.19,0,0,0-.44-1,1.88,1.88,0,0,0-.72-.67,2.18,2.18,0,0,0-1-.25,3.2,3.2,0,0,0-1.58.35,2.94,2.94,0,0,0-1,.82,3.72,3.72,0,0,0-.5,1.59,18.62,18.62,0,0,0-.18,2Q57,64.05,57,65.85Z"/><path class="cls-6" d="M69,78.13v-21h2.64v1.94a6,6,0,0,1,4.65-2.41,3.67,3.67,0,0,1,2.06.67,3.79,3.79,0,0,1,1.43,1.71,7.34,7.34,0,0,1,2.26-1.78,5.13,5.13,0,0,1,2.24-.6,4,4,0,0,1,2.81,1.12,3.67,3.67,0,0,1,1.2,2.8V78.13H85.72v-17a2.67,2.67,0,0,0-.59-1.92,2.08,2.08,0,0,0-1.57-.6,4.84,4.84,0,0,0-3.32,1.7V78.13H77.62v-17q0-2.5-2.22-2.5a3.83,3.83,0,0,0-1.88.56,7.29,7.29,0,0,0-1.85,1.52V78.13Z"/><path class="cls-6" d="M92.4,84.87V57.18H95v2a4.82,4.82,0,0,1,4.23-2.45,4.27,4.27,0,0,1,.86.08,3.21,3.21,0,0,1,.86.33,2.91,2.91,0,0,1,.84.68,5.53,5.53,0,0,1,.74,1.19,8.47,8.47,0,0,1,.6,1.78,20.53,20.53,0,0,1,.38,2.54q.15,1.52.15,3.41v1.66a32.39,32.39,0,0,1-.29,4.66,13.92,13.92,0,0,1-.71,3,4.39,4.39,0,0,1-1.08,1.65,3.1,3.1,0,0,1-1.22.75,5.13,5.13,0,0,1-1.31.15A4.23,4.23,0,0,1,96.9,78,6,6,0,0,1,95,76.16v8.71Zm8.66-16.5V66.71q0-1.64-.08-2.92t-.2-2.12a7.47,7.47,0,0,0-.33-1.43,5,5,0,0,0-.4-.9,1.25,1.25,0,0,0-.5-.47,1.84,1.84,0,0,0-.53-.19,3.71,3.71,0,0,0-.57,0,3.26,3.26,0,0,0-1.71.59A7.39,7.39,0,0,0,95,60.76V74.58q1.87,2.08,3.52,2.08a2.45,2.45,0,0,0,.64-.07,1.79,1.79,0,0,0,.58-.32,1.69,1.69,0,0,0,.52-.8,12.17,12.17,0,0,0,.4-1.43,15,15,0,0,0,.29-2.32Q101.06,70.3,101.06,68.37Z"/><path class="cls-6" d="M107.39,68.2V67.11q0-1.4,0-2.14t.11-2a10.74,10.74,0,0,1,.3-2,13,13,0,0,1,.6-1.64,3.66,3.66,0,0,1,1-1.41,5.46,5.46,0,0,1,1.48-.83,6.17,6.17,0,0,1,4.09,0,5.46,5.46,0,0,1,1.48.83,3.67,3.67,0,0,1,1,1.41,13,13,0,0,1,.6,1.64,10.74,10.74,0,0,1,.3,2q.1,1.29.11,2t0,2.14V68.2q0,1.17,0,1.77t-.05,1.65a14.08,14.08,0,0,1-.14,1.63q-.1.58-.29,1.43a4.92,4.92,0,0,1-.46,1.33,11.13,11.13,0,0,1-.69,1,2.89,2.89,0,0,1-1,.86,6.21,6.21,0,0,1-1.29.49,6.89,6.89,0,0,1-3.31,0,6.21,6.21,0,0,1-1.29-.49,2.87,2.87,0,0,1-1-.86,11,11,0,0,1-.69-1,4.92,4.92,0,0,1-.46-1.33q-.19-.86-.29-1.43a14.08,14.08,0,0,1-.14-1.63q0-1.06-.05-1.65T107.39,68.2ZM110,67.11V68.2a26.51,26.51,0,0,0,.58,6.79,2.41,2.41,0,0,0,4.69,0,26.51,26.51,0,0,0,.58-6.79V67.11q0-1.66,0-2.8t-.15-2.18a8.81,8.81,0,0,0-.31-1.67,4.39,4.39,0,0,0-.52-1.11,1.84,1.84,0,0,0-.79-.68,3.16,3.16,0,0,0-2.22,0,1.88,1.88,0,0,0-.8.68,4,4,0,0,0-.53,1.1,9.23,9.23,0,0,0-.31,1.68q-.11,1.06-.15,2.18T110,67.11Z"/><path class="cls-6" d="M129.75,52.38V49.25h2.62v3.13Zm0,25.75v-21h2.62v21Z"/><path class="cls-6" d="M136.62,78.13v-21h2.62v2a5.57,5.57,0,0,1,2-1.84,5.19,5.19,0,0,1,2.43-.61,3.6,3.6,0,0,1,2.74,1.3,5.26,5.26,0,0,1,1.18,3.66V78.13h-2.66V61.62a3.43,3.43,0,0,0-.61-2.27,2,2,0,0,0-1.61-.71,3.42,3.42,0,0,0-1.76.57,6.67,6.67,0,0,0-1.72,1.55V78.13Z"/><path class="cls-6" d="M152.49,73.18V58.65h-2.85V57.18h2.85V49.74h2.62v7.43h3.36v1.47h-3.36V73.06q0,.75,0,1.18a6.25,6.25,0,0,0,.11.93,1.83,1.83,0,0,0,.28.74,1.42,1.42,0,0,0,.53.41,1.92,1.92,0,0,0,.85.17,7.67,7.67,0,0,0,1.54-.14v1.8a9.24,9.24,0,0,1-2.27.3,4.18,4.18,0,0,1-1.68-.31,2.84,2.84,0,0,1-1.08-.76,3.34,3.34,0,0,1-.59-1.21,7.06,7.06,0,0,1-.27-1.41Q152.49,74.11,152.49,73.18Z"/><path class="cls-6" d="M160.83,68.48V65.56a21.88,21.88,0,0,1,.31-3.79,9.87,9.87,0,0,1,.78-2.56,4.22,4.22,0,0,1,1.24-1.53,4.41,4.41,0,0,1,1.57-.77,7.87,7.87,0,0,1,1.89-.2,4.39,4.39,0,0,1,4,2q1.23,2,1.23,6.3,0,1.31,0,2.15h-8.4v3.2a23.28,23.28,0,0,0,.2,3.38,5.08,5.08,0,0,0,.64,2,2.3,2.3,0,0,0,1,.89,3.37,3.37,0,0,0,1.33.23,2.33,2.33,0,0,0,2-1.18,7.42,7.42,0,0,0,.81-3.94h2.45q-.11,1.19-.28,2.12a9.81,9.81,0,0,1-.55,1.85,5.19,5.19,0,0,1-.93,1.54,4.11,4.11,0,0,1-1.43,1,5,5,0,0,1-2,.38,5.86,5.86,0,0,1-3.46-.88,5.28,5.28,0,0,1-1.81-3.08A24.6,24.6,0,0,1,160.83,68.48Zm2.66-2.62h5.81q0-.7,0-1.42t0-1.44q0-.73-.1-1.39a6.13,6.13,0,0,0-.24-1.23,4.19,4.19,0,0,0-.44-1,1.88,1.88,0,0,0-.72-.67,2.18,2.18,0,0,0-1-.25,3.2,3.2,0,0,0-1.58.35,2.94,2.94,0,0,0-1,.82,3.72,3.72,0,0,0-.5,1.59,18.62,18.62,0,0,0-.18,2Q163.49,64.05,163.49,65.85Z"/><path class="cls-6" d="M177.19,74.46q-.09.4.47.59t2.87.67l1.12.23a22.57,22.57,0,0,1,2.47.64,10.55,10.55,0,0,1,1.93.86,3.69,3.69,0,0,1,1.36,1.26,3.2,3.2,0,0,1,.46,1.71,4.16,4.16,0,0,1-.29,1.58,3.68,3.68,0,0,1-.74,1.18,4.44,4.44,0,0,1-1.11.82,7.34,7.34,0,0,1-1.29.54,9.73,9.73,0,0,1-1.37.31c-.5.08-.92.12-1.27.14l-1.07,0q-7,0-7-2.75a4.75,4.75,0,0,1,1.14-3.13,8.75,8.75,0,0,1,2.78-2.2c-.17,0-.46-.11-.85-.22a8.19,8.19,0,0,1-1.31-.52q-.73-.35-.73-.68a2.26,2.26,0,0,1,.06-.5,3.45,3.45,0,0,1,.19-.58c.09-.2.18-.4.27-.59a7.07,7.07,0,0,1,.35-.63l.37-.59.38-.59.35-.49.32-.42.21-.3a6.73,6.73,0,0,1-1.85-2.89,11.29,11.29,0,0,1-.6-3.67,10.91,10.91,0,0,1,.19-2,8.64,8.64,0,0,1,.66-2,7.33,7.33,0,0,1,1.14-1.78,5,5,0,0,1,1.71-1.24,5.53,5.53,0,0,1,2.32-.47,4.6,4.6,0,0,1,2.79.81A9.07,9.07,0,0,1,185.79,60q.33-.58.59-1t.67-.91a4.4,4.4,0,0,1,.91-.87,3,3,0,0,1,1-.46v2.54a3.88,3.88,0,0,0-1.38.59A6.08,6.08,0,0,0,186.34,61a9.69,9.69,0,0,1,.66,3.17,12.84,12.84,0,0,1-.21,2.38,8.75,8.75,0,0,1-.67,2.11A6.19,6.19,0,0,1,185,70.33a4.9,4.9,0,0,1-1.73,1.13,6.19,6.19,0,0,1-2.31.41,6.6,6.6,0,0,1-2.52-.42A12,12,0,0,0,177.19,74.46Zm5.42,3.62-3.74-.8a7.92,7.92,0,0,0-1.76,2,4.26,4.26,0,0,0-.88,2.24,1.31,1.31,0,0,0,.18.7,1.25,1.25,0,0,0,.58.47,6.59,6.59,0,0,0,.74.28,4.46,4.46,0,0,0,1,.15l.93.05h1.15q4.64,0,4.64-2.26a2.53,2.53,0,0,0-.65-1.88A4.09,4.09,0,0,0,182.61,78.08Zm-3.21-8.54a2.87,2.87,0,0,0,1.53.4,2.82,2.82,0,0,0,1.52-.4,3,3,0,0,0,1-1A5.2,5.2,0,0,0,184,67.2a9,9,0,0,0,.27-1.4,12.42,12.42,0,0,0,.06-1.24q0-.61-.05-1.23a9.16,9.16,0,0,0-.27-1.47,6.5,6.5,0,0,0-.56-1.48,3.14,3.14,0,0,0-1-1.08,2.62,2.62,0,0,0-1.53-.46,2.81,2.81,0,0,0-1.32.31,2.55,2.55,0,0,0-.94.83,6.17,6.17,0,0,0-.6,1.11,5.68,5.68,0,0,0-.36,1.28q-.11.69-.16,1.2c0,.34,0,.67,0,1s0,.85.05,1.25a8.05,8.05,0,0,0,.27,1.4,5.24,5.24,0,0,0,.57,1.36A3,3,0,0,0,179.4,69.54Z"/><path class="cls-6" d="M191,78.13v-21h2.62v3a4.21,4.21,0,0,1,1.77-2.44,5.1,5.1,0,0,1,2.64-.85v2.64a1.18,1.18,0,0,0-.4-.07q-4,0-4,3.08V78.13Z"/><path class="cls-6" d="M207.92,78.13l-.33-2.54a6.18,6.18,0,0,1-2.07,2.24,4.46,4.46,0,0,1-2.35.77,3.93,3.93,0,0,1-2.89-1.29A4.61,4.61,0,0,1,199,74q0-.56,0-.9c0-.23,0-.52.1-.88a4,4,0,0,1,.23-.91,9.27,9.27,0,0,1,.44-.9,3.91,3.91,0,0,1,.71-.94q.42-.41,1-.95a10.28,10.28,0,0,1,1.45-1q.82-.48,1.93-1t2.46-1.11v-.17a25.15,25.15,0,0,0-.16-3.05,10.89,10.89,0,0,0-.38-2,2.88,2.88,0,0,0-.59-1.08,1.64,1.64,0,0,0-.67-.48,2.65,2.65,0,0,0-.77-.1,2.16,2.16,0,0,0-1.63.64,2.8,2.8,0,0,0-.7,1.22,8.32,8.32,0,0,0-.35,2.13v.12h-2.73A7.07,7.07,0,0,1,201,58.27a4.74,4.74,0,0,1,3.7-1.57,5.81,5.81,0,0,1,2.26.41,4.22,4.22,0,0,1,1.55,1,5,5,0,0,1,.92,1.53,7.87,7.87,0,0,1,.47,1.73,12.6,12.6,0,0,1,.12,1.8V73.31q0,1.1.08,2.31t.17,1.85l.07.67Zm-.52-4.27V66.48q-1.28.89-2,1.43t-1.55,1.27a7.83,7.83,0,0,0-1.22,1.32,5.81,5.81,0,0,0-.68,1.36,4.74,4.74,0,0,0-.27,1.6,3.34,3.34,0,0,0,.63,2.23,1.91,1.91,0,0,0,1.49.73,3.52,3.52,0,0,0,2-.72A5,5,0,0,0,207.4,73.87Z"/><path class="cls-6" d="M214.39,78.13V48H217V78.13Z"/></g></g></svg>