<?xml version="1.0" encoding="utf-8"?>
<!-- Generator: Adobe Illustrator 21.1.0, SVG Export Plug-In . SVG Version: 6.00 Build 0)  -->
<svg version="1.1" id="Camada_1" xmlns="http://www.w3.org/2000/svg" xmlns:xlink="http://www.w3.org/1999/xlink" x="0px" y="0px"
	 viewBox="0 0 2781 575" style="enable-background:new 0 0 2781 575;" xml:space="preserve">
<style type="text/css">
	.st0{opacity:0.15;}
	.st1{fill:#FFFFFF;}
	.st2{fill:none;stroke:#FFFFFF;stroke-width:0.5;stroke-miterlimit:10;}
	.st3{fill:none;stroke:#FFFFFF;stroke-miterlimit:10;}
	.st4{fill:none;stroke:#FFFFFF;stroke-width:0.75;stroke-miterlimit:10;}
</style>
<g class="st0">
	<ellipse class="st1" cx="62.2" cy="105.9" rx="6.8" ry="7.6"/>
	<ellipse class="st1" cx="338.6" cy="124.5" rx="6.8" ry="7.6"/>
	<ellipse class="st1" cx="426.9" cy="54.7" rx="6.8" ry="7.6"/>
	<ellipse class="st1" cx="528" cy="116.9" rx="6.8" ry="7.6"/>
	<ellipse class="st1" cx="413.2" cy="265.3" rx="6.8" ry="7.6"/>
	<ellipse class="st1" cx="465.8" cy="361.3" rx="6.8" ry="7.6"/>
	<ellipse class="st1" cx="697.8" cy="332.3" rx="6.8" ry="7.6"/>
	<ellipse class="st1" cx="730.3" cy="424" rx="6.8" ry="7.6"/>
	<ellipse class="st1" cx="862.5" cy="409.6" rx="6.8" ry="7.6"/>
	<ellipse class="st1" cx="746.8" cy="191.1" rx="6.8" ry="7.6"/>
	<ellipse class="st1" cx="632.1" cy="132.1" rx="6.8" ry="7.6"/>
	<ellipse class="st1" cx="862.5" cy="128.9" rx="6.8" ry="7.6"/>
	<ellipse class="st1" cx="921.9" cy="241.3" rx="6.8" ry="7.6"/>
	<ellipse class="st1" cx="1006.3" cy="359.6" rx="6.8" ry="7.6"/>
	<ellipse class="st1" cx="1091.1" cy="460" rx="6.8" ry="7.6"/>
	<ellipse class="st1" cx="1194.2" cy="481.8" rx="6.8" ry="7.6"/>
	<ellipse class="st1" cx="1305.4" cy="206.4" rx="6.8" ry="7.6"/>
	<ellipse class="st1" cx="1418.8" cy="214" rx="6.8" ry="7.6"/>
	<ellipse class="st1" cx="1484" cy="434.7" rx="6.8" ry="7.6"/>
	<ellipse class="st1" cx="1569.3" cy="492.7" rx="6.8" ry="7.6"/>
	<ellipse class="st1" cx="1542.9" cy="108.1" rx="6.8" ry="7.6"/>
	<ellipse class="st1" cx="1213.6" cy="155.1" rx="6.8" ry="7.6"/>
	<ellipse class="st1" cx="1119.3" cy="59" rx="6.8" ry="7.6"/>
	<ellipse class="st1" cx="1824.1" cy="123" rx="6.8" ry="7.6"/>
	<ellipse class="st1" cx="1914.8" cy="56.6" rx="6.8" ry="7.6"/>
	<ellipse class="st1" cx="2010.1" cy="115.8" rx="6.8" ry="7.6"/>
	<ellipse class="st1" cx="1893" cy="272.3" rx="6.8" ry="7.6"/>
	<ellipse class="st1" cx="1942.4" cy="363.5" rx="6.8" ry="7.6"/>
	<ellipse class="st1" cx="2179.3" cy="334" rx="6.8" ry="7.6"/>
	<ellipse class="st1" cx="2110.2" cy="130.6" rx="6.8" ry="7.6"/>
	<ellipse class="st1" cx="1784.1" cy="477.4" rx="6.8" ry="7.6"/>
	<ellipse class="st1" cx="2003.3" cy="503.6" rx="6.8" ry="7.6"/>
	<ellipse class="st1" cx="2213.3" cy="425.7" rx="6.8" ry="7.6"/>
	<ellipse class="st1" cx="2343.6" cy="403.9" rx="6.8" ry="7.6"/>
	<ellipse class="st1" cx="2235.7" cy="187.4" rx="6.8" ry="7.6"/>
	<ellipse class="st1" cx="2343.6" cy="123.4" rx="6.8" ry="7.6"/>
	<ellipse class="st1" cx="2402.9" cy="244.5" rx="6.8" ry="7.6"/>
	<ellipse class="st1" cx="2488.5" cy="356.7" rx="6.8" ry="7.6"/>
	<ellipse class="st1" cx="2572" cy="463.5" rx="6.8" ry="7.6"/>
	<ellipse class="st1" cx="2672.7" cy="481.1" rx="6.8" ry="7.6"/>
	<ellipse class="st1" cx="940.3" cy="517.8" rx="6.8" ry="7.6"/>
	<polyline class="st2" points="4.8,27.4 62.2,105.9 196.4,27.4 	"/>
	<polyline class="st2" points="62.2,105.9 338.6,124.5 360.7,6.6 	"/>
	<polyline class="st2" points="426.9,54.7 528,116.9 632.1,132.1 528,0.1 528,116.9 465.8,361.3 413.2,265.3 426.9,54.7 338.6,35 	
		"/>
	<line class="st3" x1="530.1" y1="119.7" x2="413.2" y2="265.3"/>
	<line class="st3" x1="699.4" y1="332.3" x2="465.8" y2="361.3"/>
	<polyline class="st2" points="629.5,128.9 746.8,191.1 696.2,332.9 528,116.9 	"/>
	<polygon class="st4" points="746.8,191.1 862.5,128.9 921.9,241.3 	"/>
	<line class="st3" x1="873.2" y1="35" x2="862.5" y2="128.9"/>
	<polyline class="st2" points="692.7,35 746.8,191.1 837.8,32.4 	"/>
	<polyline class="st2" points="746.8,191.1 862.5,409.6 1006.3,359.6 940.3,517.8 730.3,424 632.1,132.1 	"/>
	<line class="st3" x1="862.5" y1="412.2" x2="729.3" y2="421.1"/>
	<line class="st3" x1="862.5" y1="409.6" x2="697.8" y2="332.3"/>
	<polyline class="st2" points="1091.1,558.8 1194.2,481.8 1237.9,565 	"/>
	<polyline class="st2" points="1194.2,481.8 1402.7,533.7 1484,432.3 1569.3,490.1 1569.3,558.8 	"/>
	<path d="M1569.3,500.4"/>
	<polyline class="st2" points="1305.4,203.5 1418.8,214 1482,434.7 1305.4,206.4 1194.2,481.8 1091.1,460 940.3,517.8 	"/>
	<line class="st3" x1="1498.5" y1="277.7" x2="1418.8" y2="216.6"/>
	<polyline class="st2" points="1206.8,29.6 1213.6,155.1 1119.3,59 1132.9,18.6 	"/>
	<line class="st3" x1="1213.6" y1="155.1" x2="1458.7" y2="24.1"/>
	<polyline class="st2" points="1477.1,18.6 1542.9,108.1 1702.8,24.1 	"/>
	<polyline class="st2" points="1542.9,108.1 1824.1,123 1830.9,35 1914.8,56.6 2010.1,115.8 2010.1,3.4 	"/>
	<polyline class="st2" points="1988.7,3.4 2110.2,130.6 2010.1,115.8 2179.3,334 1942.4,363.5 1893,272.3 1914.8,56.6 	"/>
	<polyline class="st2" points="1893,272.3 2010.1,115.8 1942.4,363.5 	"/>
	<polyline class="st2" points="2179.3,24.1 2235.7,187.4 2179.3,334 2213.3,425.7 2350.4,403.9 2235.7,187.4 2409.8,244.5 	"/>
	<polyline class="st2" points="2110.2,130.6 2235.7,187.4 2343.6,123.4 2402.9,252.2 	"/>
	<line class="st3" x1="2343.6" y1="123.4" x2="2358.2" y2="24.1"/>
	<polyline class="st2" points="2343.6,403.9 2488.5,356.7 2416,519.6 2213.3,433.3 	"/>
	<polyline class="st2" points="2781.2,202 2672.7,473.5 2572,463.5 2525.5,558.8 	"/>
	<polyline class="st2" points="2554.7,559.7 2672.7,488.8 2737.5,575.2 	"/>
</g>
</svg>
