<?xml version="1.0" encoding="utf-8"?>
<!-- Generator: Adobe Illustrator 21.1.0, SVG Export Plug-In . SVG Version: 6.00 Build 0)  -->
<svg version="1.1" xmlns="http://www.w3.org/2000/svg" xmlns:xlink="http://www.w3.org/1999/xlink" x="0px" y="0px"
	 viewBox="0 0 1317 1317" style="enable-background:new 0 0 1317 1317;" xml:space="preserve">
<style type="text/css">
	.st0{fill:url(#SVGID_1_);}
	.st1{opacity:0.5;}
	.st2{fill:#FFFFFF;}
	.st3{fill:none;stroke:#FFFFFF;stroke-miterlimit:10;}
	.st4{fill:none;stroke:#FFFFFF;stroke-width:0.5;stroke-miterlimit:10;}
	.st5{opacity:0.3;}
	.st6{opacity:0.15;}
	.st7{fill:none;stroke:#FFFFFF;stroke-width:0.75;stroke-miterlimit:10;}
</style>
<g id="Camada_1">
	
		<linearGradient id="SVGID_1_" gradientUnits="userSpaceOnUse" x1="-125.615" y1="-140.9933" x2="1439.0876" y2="278.2675" gradientTransform="matrix(1 0 0 -1 0 733.8456)">
		<stop  offset="0" style="stop-color:#008CC9"/>
		<stop  offset="1" style="stop-color:#009EA5"/>
	</linearGradient>
	<rect x="-3.5" class="st0" width="1320.6" height="1330.4"/>
</g>
<g id="Camada_3">
	<g class="st1">
		<circle class="st2" cx="934.2" cy="936.4" r="9.5"/>
		<circle class="st2" cx="1144.6" cy="1066.4" r="9.5"/>
		<circle class="st2" cx="1262.4" cy="973.9" r="9.5"/>
		<circle class="st2" cx="1436.3" cy="862.5" r="9.5"/>
		<circle class="st2" cx="1366" cy="1042.3" r="9.5"/>
		<circle class="st2" cx="1408.8" cy="1153.5" r="9.5"/>
		<circle class="st2" cx="1539" cy="1136.4" r="9.5"/>
		<circle class="st2" cx="1667.6" cy="1120.2" r="9.5"/>
		<circle class="st2" cx="1658.1" cy="972" r="9.5"/>
		<circle class="st2" cx="1773.1" cy="942.5" r="9.5"/>
		<circle class="st2" cx="1868.7" cy="860.6" r="9.5"/>
		<circle class="st2" cx="1890.6" cy="1076.5" r="9.5"/>
		<circle class="st2" cx="1812.1" cy="1164.9" r="9.5"/>
		<circle class="st2" cx="1632.1" cy="1289.4" r="9.5"/>
		<circle class="st2" cx="1804.5" cy="1272.3" r="5.7"/>
		<circle class="st2" cx="1890.6" cy="1238.6" r="5.7"/>
		<circle class="st2" cx="1881.1" cy="1000.5" r="5.7"/>
		<circle class="st2" cx="484.1" cy="1262.2" r="5.7"/>
		<circle class="st2" cx="113.4" cy="1310.3" r="5.7"/>
		<circle class="st2" cx="-64.3" cy="1213.5" r="5.7"/>
		<circle class="st2" cx="-169.8" cy="1220.4" r="5.7"/>
		<circle class="st2" cx="1123.1" cy="1200" r="9.5"/>
		<circle class="st2" cx="819.5" cy="1248.9" r="9.5"/>
		<circle class="st2" cx="733.8" cy="1151.9" r="9.5"/>
		<circle class="st2" cx="662.7" cy="1075" r="9.5"/>
		<circle class="st2" cx="543.9" cy="1204" r="9.5"/>
		<circle class="st2" cx="-31" cy="1287.5" r="9.5"/>
		<circle class="st2" cx="-269.6" cy="1316.7" r="9.5"/>
		<circle class="st2" cx="-319.9" cy="1029.9" r="9.5"/>
		<circle class="st2" cx="-427.3" cy="921.6" r="9.5"/>
		<circle class="st2" cx="-438.7" cy="1280.8" r="9.5"/>
		<circle class="st2" cx="-625.9" cy="1239.4" r="9.5"/>
		<circle class="st2" cx="-792.2" cy="1258.4" r="9.5"/>
		<circle class="st2" cx="-762.8" cy="1050.8" r="9.5"/>
		<circle class="st2" cx="447" cy="1229.9" r="9.5"/>
		<circle class="st2" cx="577.2" cy="1267.9" r="9.5"/>
		<line class="st3" x1="1918.1" y1="981.5" x2="1667.6" y2="1120.2"/>
		<line class="st3" x1="1773.1" y1="942.5" x2="1667.6" y2="1120.2"/>
		<line class="st3" x1="1658.1" y1="972" x2="1667.6" y2="1120.2"/>
		<line class="st3" x1="1667.6" y1="1120.2" x2="1632.1" y2="1289.4"/>
		<line class="st3" x1="1667.6" y1="1120.2" x2="1446.2" y2="1259.5"/>
		<line class="st3" x1="1667.6" y1="1120.2" x2="1410.7" y2="1155.4"/>
		<line class="st3" x1="1658.1" y1="972" x2="1446.2" y2="1259.5"/>
		<line class="st3" x1="1812.1" y1="1164.9" x2="1593.1" y2="1316.4"/>
		<line class="st3" x1="1918.1" y1="1164.9" x2="1812.1" y2="1164.9"/>
		<line class="st3" x1="1804.5" y1="1272.3" x2="1812.1" y2="1164.9"/>
		<line class="st3" x1="1890.6" y1="1238.6" x2="1804.5" y2="1272.3"/>
		<line class="st3" x1="1890.6" y1="1241.3" x2="1853.1" y2="1315.6"/>
		<line class="st3" x1="1890.6" y1="1238.6" x2="1917.8" y2="1251.4"/>
		<line class="st3" x1="1773.1" y1="942.5" x2="1812.1" y2="1164.9"/>
		<line class="st3" x1="1773.1" y1="942.5" x2="1890.6" y2="1076.5"/>
		<line class="st3" x1="1717.4" y1="859.8" x2="1773.1" y2="942.5"/>
		<line class="st3" x1="1682.5" y1="857.2" x2="1658.1" y2="972"/>
		<line class="st3" x1="1773.1" y1="942.9" x2="1366" y2="1042.3"/>
		<line class="st3" x1="1868.7" y1="859.8" x2="1890.6" y2="1076.5"/>
		<line class="st3" x1="1918.1" y1="1015.3" x2="1883" y2="1000.5"/>
		<line class="st3" x1="1918.9" y1="1101.8" x2="1886.8" y2="1072.1"/>
		<polyline class="st4" points="1868.7,860.6 1773.1,942.5 1436.3,862.5 1262.4,973.9 1366,1038.5 1446.2,1259.5 1783,1316.2 		"/>
		<polyline class="st4" points="1410.7,1155.4 1123.1,1200 1366,1042.3 1437.3,863 1659.1,972 		"/>
		<line class="st3" x1="1123.1" y1="1200" x2="1313.7" y2="1316.7"/>
		<polyline class="st4" points="1379.1,1316.7 1446.2,1259.5 1441.3,1316.7 		"/>
		<line class="st3" x1="1125" y1="1196.8" x2="999.9" y2="1317.7"/>
		<line class="st3" x1="1141.1" y1="1068.3" x2="1366" y2="1042.3"/>
		<polyline class="st4" points="1146.5,1066.4 934.2,936.4 1262.4,973.9 		"/>
		<polyline class="st4" points="648.5,1317.1 733.8,1151.9 662.7,1075.9 484.1,1262.2 		"/>
		<polyline class="st4" points="752.5,1316 819.5,1248.9 733.8,1151.9 934.2,936.4 819.5,1248.9 1144.6,1066.4 1121.6,1200 
			819.5,1248.9 1218.3,1316.7 		"/>
		<polyline class="st4" points="708,1316.7 577.2,1267.9 521.7,1316.9 		"/>
		<line class="st3" x1="545.3" y1="1316" x2="447" y2="1229.9"/>
		<line class="st3" x1="447.8" y1="1229.9" x2="471.1" y2="1316.7"/>
		<line class="st3" x1="447.8" y1="1229.9" x2="733.8" y2="1151.9"/>
		<polyline class="st4" points="662.7,1075.9 113.4,1310.3 -64.3,1213.5 -169.8,1220.4 -63.9,1316.2 		"/>
		<polyline class="st4" points="-12.4,1316.2 -31,1287.5 -269.6,1316.7 -319.9,1029.9 542.8,1204 		"/>
		<polyline class="st4" points="-427.3,921.6 -762.8,1050.8 -438.7,1280.8 -474,335.1 -366.6,443.4 -485.4,694.3 -316.2,730.2 		"/>
		<polyline class="st4" points="-482.4,1316.7 -438.7,1280.8 -625.9,1239.4 -762.8,1050.8 -792.2,1258.4 -749.7,1316.7 		"/>
		<line class="st3" x1="-792.2" y1="1258.4" x2="-812.6" y2="1316.2"/>
		<polyline class="st4" points="-638.5,1316 -625.9,1239.4 -782.7,1258.4 		"/>
		<polyline class="st4" points="-818.9,1041.3 -762.8,1050.8 -818.9,966.3 		"/>
	</g>
	<g class="st1">
		<circle class="st2" cx="165.9" cy="374.5" r="9.5"/>
		<circle class="st2" cx="-44.5" cy="244.5" r="9.5"/>
		<circle class="st2" cx="-162.4" cy="337.1" r="9.5"/>
		<circle class="st2" cx="-336.3" cy="448.4" r="9.5"/>
		<circle class="st2" cx="-265.9" cy="268.6" r="9.5"/>
		<circle class="st2" cx="-308.7" cy="157.5" r="9.5"/>
		<circle class="st2" cx="-438.9" cy="174.6" r="9.5"/>
		<circle class="st2" cx="-567.6" cy="190.7" r="9.5"/>
		<circle class="st2" cx="-558.1" cy="339" r="9.5"/>
		<circle class="st2" cx="-673.1" cy="368.4" r="9.5"/>
		<circle class="st2" cx="-768.7" cy="450.3" r="9.5"/>
		<circle class="st2" cx="-790.5" cy="234.4" r="9.5"/>
		<circle class="st2" cx="-712" cy="146" r="9.5"/>
		<circle class="st2" cx="-532" cy="21.6" r="9.5"/>
		<circle class="st2" cx="-704.4" cy="38.7" r="5.7"/>
		<circle class="st2" cx="-790.5" cy="72.3" r="5.7"/>
		<circle class="st2" cx="-781" cy="310.5" r="5.7"/>
		<circle class="st2" cx="616" cy="48.7" r="5.7"/>
		<circle class="st2" cx="986.6" cy="0.6" r="5.7"/>
		<circle class="st2" cx="1164.3" cy="97.4" r="5.7"/>
		<circle class="st2" cx="1269.8" cy="90.5" r="5.7"/>
		<circle class="st2" cx="-23" cy="110.9" r="9.5"/>
		<circle class="st2" cx="280.5" cy="62" r="9.5"/>
		<circle class="st2" cx="366.2" cy="159" r="9.5"/>
		<circle class="st2" cx="437.3" cy="236" r="9.5"/>
		<circle class="st2" cx="556.1" cy="106.9" r="9.5"/>
		<circle class="st2" cx="1131.1" cy="23.5" r="9.5"/>
		<circle class="st2" cx="1369.6" cy="-5.8" r="9.5"/>
		<circle class="st2" cx="1420" cy="281" r="9.5"/>
		<circle class="st2" cx="1527.4" cy="389.3" r="9.5"/>
		<circle class="st2" cx="1538.8" cy="30.1" r="9.5"/>
		<circle class="st2" cx="1726" cy="71.5" r="9.5"/>
		<circle class="st2" cx="1892.3" cy="52.5" r="9.5"/>
		<circle class="st2" cx="1862.8" cy="260.1" r="9.5"/>
		<circle class="st2" cx="653" cy="81" r="9.5"/>
		<circle class="st2" cx="522.8" cy="43" r="9.5"/>
		<line class="st3" x1="-818.1" y1="329.5" x2="-567.6" y2="190.7"/>
		<line class="st3" x1="-673.1" y1="368.4" x2="-567.6" y2="190.7"/>
		<line class="st3" x1="-558.1" y1="339" x2="-567.6" y2="190.7"/>
		<line class="st3" x1="-567.6" y1="190.7" x2="-532" y2="21.6"/>
		<line class="st3" x1="-567.6" y1="190.7" x2="-346.2" y2="51.4"/>
		<line class="st3" x1="-567.6" y1="190.7" x2="-310.6" y2="155.6"/>
		<line class="st3" x1="-558.1" y1="339" x2="-346.2" y2="51.4"/>
		<line class="st3" x1="-712" y1="146" x2="-493.1" y2="-5.4"/>
		<line class="st3" x1="-818.1" y1="146" x2="-712" y2="146"/>
		<line class="st3" x1="-704.4" y1="38.7" x2="-712" y2="146"/>
		<line class="st3" x1="-790.5" y1="72.3" x2="-704.4" y2="38.7"/>
		<line class="st3" x1="-790.5" y1="69.6" x2="-753.1" y2="-4.7"/>
		<line class="st3" x1="-790.5" y1="72.3" x2="-817.7" y2="59.6"/>
		<line class="st3" x1="-673.1" y1="368.4" x2="-712" y2="146"/>
		<line class="st3" x1="-673.1" y1="368.4" x2="-790.5" y2="234.4"/>
		<line class="st3" x1="-617.4" y1="451.1" x2="-673.1" y2="368.4"/>
		<line class="st3" x1="-582.4" y1="453.8" x2="-558.1" y2="339"/>
		<line class="st3" x1="-673.1" y1="368" x2="-265.9" y2="268.6"/>
		<line class="st3" x1="-768.7" y1="451.1" x2="-790.5" y2="234.4"/>
		<line class="st3" x1="-818.1" y1="295.6" x2="-782.9" y2="310.5"/>
		<line class="st3" x1="-818.9" y1="209.2" x2="-786.7" y2="238.8"/>
		<polyline class="st4" points="-768.7,450.3 -673.1,368.4 -336.3,448.4 -162.4,337.1 -265.9,272.4 -346.2,51.4 -683,-5.2 		"/>
		<polyline class="st4" points="-310.6,155.6 -23,110.9 -265.9,268.6 -337.2,447.9 -559,339 		"/>
		<line class="st3" x1="-23" y1="110.9" x2="-213.7" y2="-5.8"/>
		<polyline class="st4" points="-279.1,-5.8 -346.2,51.4 -341.2,-5.8 		"/>
		<line class="st3" x1="-24.9" y1="114.1" x2="100.1" y2="-6.8"/>
		<line class="st3" x1="-41.1" y1="242.6" x2="-265.9" y2="268.6"/>
		<polyline class="st4" points="-46.4,244.5 165.9,374.5 -162.4,337.1 		"/>
		<polyline class="st4" points="451.6,-6.2 366.2,159 437.3,235 616,48.7 		"/>
		<polyline class="st4" points="347.6,-5.1 280.5,62 366.2,159 165.9,374.5 280.5,62 -44.5,244.5 -21.5,110.9 280.5,62 -118.3,-5.8 
					"/>
		<polyline class="st4" points="392.1,-5.8 522.8,43 578.3,-6 		"/>
		<line class="st3" x1="554.8" y1="-5.1" x2="653" y2="81"/>
		<line class="st3" x1="652.3" y1="81" x2="628.9" y2="-5.8"/>
		<line class="st3" x1="652.3" y1="81" x2="366.2" y2="159"/>
		<polyline class="st4" points="437.3,235 986.6,0.6 1164.3,97.4 1269.8,90.5 1164,-5.2 		"/>
		<polyline class="st4" points="1112.4,-5.2 1131.1,23.5 1369.6,-5.8 1420,281 557.2,106.9 		"/>
		<polyline class="st4" points="1527.4,389.3 1862.8,260.1 1538.8,30.1 1527.4,389.3 1420,281 1538.8,30.1 1369.6,-5.8 		"/>
		<polyline class="st4" points="1582.5,-5.8 1538.8,30.1 1726,71.5 1862.8,260.1 1892.3,52.5 1849.7,-5.8 		"/>
		<line class="st3" x1="1892.3" y1="52.5" x2="1912.6" y2="-5.2"/>
		<polyline class="st4" points="1738.5,-5.1 1726,71.5 1882.8,52.5 		"/>
		<polyline class="st4" points="1918.9,269.6 1862.8,260.1 1918.9,344.7 		"/>
	</g>
	<g class="st5">
		<circle class="st2" cx="93.1" cy="1210.9" r="11.4"/>
		<circle class="st2" cx="319.3" cy="1061.3" r="11.4"/>
		<circle class="st2" cx="278.6" cy="1322.4" r="11.4"/>
		<circle class="st2" cx="515.8" cy="1188.8" r="11.4"/>
		<circle class="st2" cx="697.3" cy="1265" r="11.4"/>
		<circle class="st2" cx="942.1" cy="1201.4" r="11.4"/>
		<polyline class="st4" points="156.4,1337.8 93.1,1210.9 319.3,1061.3 278.6,1322.6 319.9,1338 		"/>
		<polyline class="st4" points="572.1,1338.6 515.8,1188.8 625.1,1242.2 590.7,1337.8 		"/>
		<polyline class="st4" points="625.1,1242.2 697.3,1269.6 672.6,1337.8 		"/>
		<polyline class="st4" points="697.3,1269.6 942.1,1201.4 781,1338.6 		"/>
		<line class="st3" x1="942.1" y1="1201.4" x2="1018.4" y2="1338.8"/>
	</g>
	<g class="st5">
		<circle class="st2" cx="1007" cy="926" r="11.4"/>
		<circle class="st2" cx="780.8" cy="1075.6" r="11.4"/>
		<circle class="st2" cx="821.4" cy="814.5" r="11.4"/>
		<circle class="st2" cx="584.2" cy="948.1" r="11.4"/>
		<circle class="st2" cx="402.7" cy="871.9" r="11.4"/>
		<circle class="st2" cx="157.9" cy="935.5" r="11.4"/>
		<polyline class="st4" points="943.7,799.1 1007,926 780.8,1075.6 821.4,814.3 780.2,798.9 		"/>
		<polyline class="st4" points="528,798.3 584.2,948.1 474.9,894.7 509.4,799.1 		"/>
		<polyline class="st4" points="474.9,894.7 402.7,867.3 427.4,799.1 		"/>
		<polyline class="st4" points="402.7,867.3 157.9,935.5 319.1,798.3 		"/>
		<line class="st3" x1="157.9" y1="935.5" x2="81.7" y2="798.1"/>
	</g>
	<g class="st6">
		<circle class="st2" cx="-750.5" cy="67.1" r="6.7"/>
		<circle class="st2" cx="-480.4" cy="83.2" r="6.7"/>
		<circle class="st2" cx="-394.1" cy="22.4" r="6.7"/>
		<circle class="st2" cx="-295.3" cy="76.6" r="6.7"/>
		<circle class="st2" cx="-407.4" cy="205.8" r="6.7"/>
		<circle class="st2" cx="-356.1" cy="289.5" r="6.7"/>
		<circle class="st2" cx="-129.4" cy="264.2" r="6.7"/>
		<circle class="st2" cx="-97.6" cy="344" r="6.7"/>
		<circle class="st2" cx="31.6" cy="331.5" r="6.7"/>
		<circle class="st2" cx="-81.5" cy="141.2" r="6.7"/>
		<circle class="st2" cx="-193.6" cy="89.9" r="6.7"/>
		<circle class="st2" cx="31.6" cy="87" r="6.7"/>
		<circle class="st2" cx="89.6" cy="184.9" r="6.7"/>
		<circle class="st2" cx="172.1" cy="287.9" r="6.7"/>
		<circle class="st2" cx="254.9" cy="375.4" r="6.7"/>
		<circle class="st2" cx="355.7" cy="394.4" r="6.7"/>
		<circle class="st2" cx="464.4" cy="154.5" r="6.7"/>
		<circle class="st2" cx="575.2" cy="161.2" r="6.7"/>
		<circle class="st2" cx="638.9" cy="353.3" r="6.7"/>
		<circle class="st2" cx="722.3" cy="403.9" r="6.7"/>
		<circle class="st2" cx="696.5" cy="69" r="6.7"/>
		<circle class="st2" cx="374.7" cy="109.8" r="6.7"/>
		<circle class="st2" cx="282.5" cy="26.2" r="6.7"/>
		<circle class="st2" cx="971.3" cy="81.9" r="6.7"/>
		<circle class="st2" cx="1059.9" cy="24.1" r="6.7"/>
		<circle class="st2" cx="1153" cy="75.6" r="6.7"/>
		<circle class="st2" cx="1038.6" cy="211.9" r="6.7"/>
		<circle class="st2" cx="1086.9" cy="291.4" r="6.7"/>
		<circle class="st2" cx="1318.4" cy="265.7" r="6.7"/>
		<circle class="st2" cx="1250.9" cy="88.6" r="6.7"/>
		<circle class="st2" cx="932.2" cy="390.6" r="6.7"/>
		<circle class="st2" cx="1146.4" cy="413.4" r="6.7"/>
		<circle class="st2" cx="1351.6" cy="345.5" r="6.7"/>
		<circle class="st2" cx="1479" cy="326.5" r="6.7"/>
		<circle class="st2" cx="1373.5" cy="138" r="6.7"/>
		<circle class="st2" cx="1479" cy="82.3" r="6.7"/>
		<circle class="st2" cx="1537" cy="187.8" r="6.7"/>
		<circle class="st2" cx="1620.6" cy="285.5" r="6.7"/>
		<circle class="st2" cx="1702.1" cy="378.4" r="6.7"/>
		<circle class="st2" cx="1800.6" cy="393.8" r="6.7"/>
		<circle class="st2" cx="107.6" cy="425.7" r="6.7"/>
		<polyline class="st4" points="-806.6,-1.4 -750.5,67.1 -619.4,-1.4 		"/>
		<polyline class="st4" points="-750.5,67.1 -480.4,83.2 -458.8,-19.4 		"/>
		<polyline class="st4" points="-394.1,22.4 -295.3,76.6 -193.6,89.9 -295.3,-25.1 -295.3,76.6 -356.1,289.5 -407.4,205.8 
			-394.1,22.4 -480.4,5.3 		"/>
		<line class="st3" x1="-293.2" y1="79" x2="-407.4" y2="205.8"/>
		<line class="st3" x1="-127.9" y1="264.2" x2="-356.1" y2="289.5"/>
		<polyline class="st4" points="-196.1,87 -81.5,141.2 -130.9,264.7 -295.3,76.6 		"/>
		<polygon class="st7" points="-81.5,141.2 31.6,87 89.6,184.9 		"/>
		<line class="st3" x1="42.1" y1="5.3" x2="31.6" y2="87"/>
		<polyline class="st4" points="-134.3,5.3 -81.5,141.2 7.5,3 		"/>
		<polyline class="st4" points="-81.5,141.2 31.6,331.5 172.1,287.9 107.6,425.7 -97.6,344 -193.6,89.9 		"/>
		<line class="st3" x1="31.6" y1="333.7" x2="-98.6" y2="341.5"/>
		<line class="st3" x1="31.6" y1="331.5" x2="-129.4" y2="264.2"/>
		<polyline class="st4" points="254.9,461.5 355.7,394.4 398.4,466.8 		"/>
		<polyline class="st4" points="355.7,394.4 559.4,439.6 638.9,351.2 722.3,401.6 722.3,461.5 		"/>
		<path d="M722.3,410.5"/>
		<polyline class="st4" points="464.4,152 575.2,161.2 637,353.3 464.4,154.5 355.7,394.4 254.9,375.4 107.6,425.7 		"/>
		<line class="st3" x1="653.1" y1="216.7" x2="575.2" y2="163.4"/>
		<polyline class="st4" points="368,0.5 374.7,109.8 282.5,26.2 295.8,-9 		"/>
		<line class="st3" x1="374.7" y1="109.8" x2="614.2" y2="-4.2"/>
		<polyline class="st4" points="632.2,-9 696.5,69 852.7,-4.2 		"/>
		<polyline class="st4" points="696.5,69 971.3,81.9 978,5.3 1059.9,24.1 1153,75.6 1153,-22.3 		"/>
		<polyline class="st4" points="1132.1,-22.3 1250.9,88.6 1153,75.6 1318.4,265.7 1086.9,291.4 1038.6,211.9 1059.9,24.1 		"/>
		<polyline class="st4" points="1038.6,211.9 1153,75.6 1086.9,291.4 		"/>
		<polyline class="st4" points="1318.4,-4.2 1373.5,138 1318.4,265.7 1351.6,345.5 1485.6,326.5 1373.5,138 1543.6,187.8 		"/>
		<polyline class="st4" points="1250.9,88.6 1373.5,138 1479,82.3 1537,194.4 		"/>
		<line class="st3" x1="1479" y1="82.3" x2="1493.2" y2="-4.2"/>
		<polyline class="st4" points="1479,326.5 1620.6,285.5 1549.7,427.3 1351.6,352.2 		"/>
		<polyline class="st4" points="1906.6,150.7 1800.6,387.2 1702.1,378.4 1656.7,461.5 		"/>
		<polyline class="st4" points="1685.2,462.2 1800.6,400.5 1863.9,475.7 		"/>
	</g>
	<g class="st6">
		<ellipse class="st2" cx="-780.8" cy="543.9" rx="6.8" ry="7.6"/>
		<ellipse class="st2" cx="-504.4" cy="562.5" rx="6.8" ry="7.6"/>
		<ellipse class="st2" cx="-416.1" cy="492.7" rx="6.8" ry="7.6"/>
		<ellipse class="st2" cx="-315" cy="554.9" rx="6.8" ry="7.6"/>
		<ellipse class="st2" cx="-429.8" cy="703.3" rx="6.8" ry="7.6"/>
		<ellipse class="st2" cx="-377.2" cy="799.3" rx="6.8" ry="7.6"/>
		<ellipse class="st2" cx="-145.2" cy="770.3" rx="6.8" ry="7.6"/>
		<ellipse class="st2" cx="-112.7" cy="862" rx="6.8" ry="7.6"/>
		<ellipse class="st2" cx="19.5" cy="847.6" rx="6.8" ry="7.6"/>
		<ellipse class="st2" cx="-96.2" cy="629.1" rx="6.8" ry="7.6"/>
		<ellipse class="st2" cx="-210.9" cy="570.1" rx="6.8" ry="7.6"/>
		<ellipse class="st2" cx="19.5" cy="566.9" rx="6.8" ry="7.6"/>
		<ellipse class="st2" cx="78.9" cy="679.3" rx="6.8" ry="7.6"/>
		<ellipse class="st2" cx="163.3" cy="797.6" rx="6.8" ry="7.6"/>
		<ellipse class="st2" cx="248.1" cy="898" rx="6.8" ry="7.6"/>
		<ellipse class="st2" cx="351.2" cy="919.8" rx="6.8" ry="7.6"/>
		<ellipse class="st2" cx="462.4" cy="644.4" rx="6.8" ry="7.6"/>
		<ellipse class="st2" cx="575.8" cy="652" rx="6.8" ry="7.6"/>
		<ellipse class="st2" cx="641" cy="872.7" rx="6.8" ry="7.6"/>
		<ellipse class="st2" cx="726.3" cy="930.7" rx="6.8" ry="7.6"/>
		<ellipse class="st2" cx="699.9" cy="546.1" rx="6.8" ry="7.6"/>
		<ellipse class="st2" cx="370.6" cy="593.1" rx="6.8" ry="7.6"/>
		<ellipse class="st2" cx="276.3" cy="497" rx="6.8" ry="7.6"/>
		<ellipse class="st2" cx="981.1" cy="561" rx="6.8" ry="7.6"/>
		<ellipse class="st2" cx="1071.8" cy="494.6" rx="6.8" ry="7.6"/>
		<ellipse class="st2" cx="1167.1" cy="553.8" rx="6.8" ry="7.6"/>
		<ellipse class="st2" cx="1050" cy="710.3" rx="6.8" ry="7.6"/>
		<ellipse class="st2" cx="1099.4" cy="801.5" rx="6.8" ry="7.6"/>
		<ellipse class="st2" cx="1336.3" cy="772" rx="6.8" ry="7.6"/>
		<ellipse class="st2" cx="1267.2" cy="568.6" rx="6.8" ry="7.6"/>
		<ellipse class="st2" cx="941.1" cy="915.4" rx="6.8" ry="7.6"/>
		<ellipse class="st2" cx="1160.3" cy="941.6" rx="6.8" ry="7.6"/>
		<ellipse class="st2" cx="1370.3" cy="863.7" rx="6.8" ry="7.6"/>
		<ellipse class="st2" cx="1500.6" cy="841.9" rx="6.8" ry="7.6"/>
		<ellipse class="st2" cx="1392.7" cy="625.4" rx="6.8" ry="7.6"/>
		<ellipse class="st2" cx="1500.6" cy="561.4" rx="6.8" ry="7.6"/>
		<ellipse class="st2" cx="1559.9" cy="682.5" rx="6.8" ry="7.6"/>
		<ellipse class="st2" cx="1645.5" cy="794.7" rx="6.8" ry="7.6"/>
		<ellipse class="st2" cx="1729" cy="901.5" rx="6.8" ry="7.6"/>
		<ellipse class="st2" cx="1829.7" cy="919.1" rx="6.8" ry="7.6"/>
		<ellipse class="st2" cx="97.3" cy="955.8" rx="6.8" ry="7.6"/>
		<polyline class="st4" points="-838.2,465.4 -780.8,543.9 -646.6,465.4 		"/>
		<polyline class="st4" points="-780.8,543.9 -504.4,562.5 -482.3,444.6 		"/>
		<polyline class="st4" points="-416.1,492.7 -315,554.9 -210.9,570.1 -315,438.1 -315,554.9 -377.2,799.3 -429.8,703.3 
			-416.1,492.7 -504.4,473 		"/>
		<line class="st3" x1="-312.9" y1="557.7" x2="-429.8" y2="703.3"/>
		<line class="st3" x1="-143.6" y1="770.3" x2="-377.2" y2="799.3"/>
		<polyline class="st4" points="-213.5,566.9 -96.2,629.1 -146.8,770.9 -315,554.9 		"/>
		<polygon class="st7" points="-96.2,629.1 19.5,566.9 78.9,679.3 		"/>
		<line class="st3" x1="30.2" y1="473" x2="19.5" y2="566.9"/>
		<polyline class="st4" points="-150.3,473 -96.2,629.1 -5.2,470.4 		"/>
		<polyline class="st4" points="-96.2,629.1 19.5,847.6 163.3,797.6 97.3,955.8 -112.7,862 -210.9,570.1 		"/>
		<line class="st3" x1="19.5" y1="850.2" x2="-113.7" y2="859.1"/>
		<line class="st3" x1="19.5" y1="847.6" x2="-145.2" y2="770.3"/>
		<polyline class="st4" points="248.1,996.8 351.2,919.8 394.9,1003 		"/>
		<polyline class="st4" points="351.2,919.8 559.7,971.7 641,870.3 726.3,928.1 726.3,996.8 		"/>
		<path d="M726.3,938.4"/>
		<polyline class="st4" points="462.4,641.5 575.8,652 639,872.7 462.4,644.4 351.2,919.8 248.1,898 97.3,955.8 		"/>
		<line class="st3" x1="655.5" y1="715.7" x2="575.8" y2="654.6"/>
		<polyline class="st4" points="363.8,467.6 370.6,593.1 276.3,497 289.9,456.6 		"/>
		<line class="st3" x1="370.6" y1="593.1" x2="615.7" y2="462.1"/>
		<polyline class="st4" points="634.1,456.6 699.9,546.1 859.8,462.1 		"/>
		<polyline class="st4" points="699.9,546.1 981.1,561 987.9,473 1071.8,494.6 1167.1,553.8 1167.1,441.4 		"/>
		<polyline class="st4" points="1145.7,441.4 1267.2,568.6 1167.1,553.8 1336.3,772 1099.4,801.5 1050,710.3 1071.8,494.6 		"/>
		<polyline class="st4" points="1050,710.3 1167.1,553.8 1099.4,801.5 		"/>
		<polyline class="st4" points="1336.3,462.1 1392.7,625.4 1336.3,772 1370.3,863.7 1507.4,841.9 1392.7,625.4 1566.8,682.5 		"/>
		<polyline class="st4" points="1267.2,568.6 1392.7,625.4 1500.6,561.4 1559.9,690.2 		"/>
		<line class="st3" x1="1500.6" y1="561.4" x2="1515.2" y2="462.1"/>
		<polyline class="st4" points="1500.6,841.9 1645.5,794.7 1573,957.6 1370.3,871.3 		"/>
		<polyline class="st4" points="1938.2,640 1829.7,911.5 1729,901.5 1682.5,996.8 		"/>
		<polyline class="st4" points="1711.7,997.7 1829.7,926.8 1894.5,1013.2 		"/>
	</g>
</g>
</svg>
